<?xml version="1.0" encoding="utf-8"?>
<!-- Generator: Adobe Illustrator 22.0.1, SVG Export Plug-In . SVG Version: 6.00 Build 0)  -->
<svg version="1.1" id="Capa_1" xmlns="http://www.w3.org/2000/svg" xmlns:xlink="http://www.w3.org/1999/xlink" x="0px" y="0px"
	 viewBox="0 0 60.5 60.5" style="enable-background:new 0 0 60.5 60.5;" xml:space="preserve">
<style type="text/css">
	.st0{fill:#1D1D1B;}
</style>
<g>
	<path class="st0" d="M60.1,52.6c-0.5-1.9-2-3.5-2.8-5.2c-0.9-2-1.3-4.1-1.8-6.2c-0.2-0.7-1.1-0.7-1.4-0.2c-0.1,0.1-0.2,0.2-0.3,0.3
		c-0.9,1.9-2.4,2.7-4.5,2.6c-1.8,1.3-3.1,1.1-4-0.5c-1.5-1.1-1.9-3-2.4-4.7C42,35.8,41.4,32.8,41,30c-0.6-3.4-0.9-6.9-0.2-10.3
		c0.1-1.2,0.5-2.4,1.1-3.5c1.5-2.7,3.6-3.2,6.3-1.3c1,0.3,3.4,2.6,4,3.1c0.3,0.2,0.7-0.1,0.5-0.4c0,0,0-0.1-0.1-0.1
		c0.1,0,0.2,0,0.4-0.1c1.2-0.5,1.7-2.1,2.3-3.1c0.7-1.3,1.4-2.7,2.1-4.1c0-0.1,0.1-0.2,0.1-0.3c0.1-0.2,0.2-0.5,0.1-0.7
		C54.3,1.6,45.6-2.2,38,1.3c-9.1,4.2-11.8,14.9-11.6,24.1c0.2,6.1,1,12.4,2.3,18.4c1,4.6,2.4,9.6,5.9,13.1
		c7.4,7.3,17.8,2.5,24.3-3.4C59.6,53.7,60.2,53.2,60.1,52.6z M54.1,43.8c0.1,0.6,0.2,1.2,0.4,1.8c-0.9,0-1.7,0.1-2.6,0.1
		C52.7,45.2,53.4,44.6,54.1,43.8z M51.8,16.2c-0.5-0.6-1-1.2-1.5-1.8c0.9-0.3,1.7-0.3,2.6-0.4C52.4,14.7,51.9,15.5,51.8,16.2z
		 M53.5,13.2c-0.1,0.1-0.2,0.3-0.3,0.4c-1-0.1-2.1,0.2-3,0.5c0,0-0.1,0.1-0.1,0.1c-0.7-0.7-1.4-1.2-2.1-1.7c2.1,0,4.1-0.1,6.2-0.2
		C53.9,12.6,53.7,12.9,53.5,13.2z M54.3,54.5C54.3,54.5,54.3,54.5,54.3,54.5c-3.8,0.2-7.5,0.8-11.1,1.3c-0.2,0-0.1,0.3,0,0.3
		c3.3-0.3,6.7-0.5,10-1c-6.6,3.5-14.4,5.2-19.1-2.5C30.1,46,29.4,36.5,28.8,29c-0.7-7.9-0.2-16.8,5.8-22.7c3.4-3.4,7.7-4.6,11.6-3.9
		c-1.6,0.1-3.2,0.4-4.6,0.8c-0.2,0.1-0.1,0.3,0.1,0.3C43.7,3.2,45.8,3,48,2.9c1,0.4,2,0.8,2.9,1.4C47.2,4.3,43.6,4.5,40,5
		c-0.2,0-0.1,0.4,0,0.3c3.9-0.3,7.7-0.5,11.6-0.5c0.6,0.4,1.1,0.9,1.6,1.5c-4.9,0.2-9.8,0.5-14.7,0.9c-0.1,0-0.1,0.2,0,0.2
		c5-0.1,10.1-0.3,15.1-0.6c0.5,0.6,0.9,1.2,1.3,1.8c-6,0.1-12,0.8-17.9,1.6c-0.2,0-0.1,0.3,0,0.3c6.1-0.6,12.1-1,18.2-1.4
		c0.2,0.3,0.3,0.5,0.5,0.8c0,0.1,0.1,0.1,0.1,0.1c-0.4,0.6-0.9,1.2-1.3,1.7c-2.8-0.1-5.6-0.1-8.4,0c-0.7-0.1-1.5-0.1-2.2,0.1
		c-1.9,0.1-3.7,0.2-5.6,0.3c-0.2,0-0.2,0.3,0,0.3c1.4,0,2.7,0,4.1,0c-0.1,0.1-0.3,0.2-0.4,0.3c-0.6,0.4-1.2,1-1.6,1.5
		c-1.2,0.1-2.4,0.2-3.6,0.4c-0.2,0-0.2,0.3,0,0.3c1,0,2.1,0,3.1,0c-0.5,0.8-0.8,1.7-1.1,2.6c-1.3,0-2.6,0.2-3.8,0.3
		c-0.2,0-0.2,0.3,0,0.3c1.2,0,2.4,0,3.6-0.1c-0.2,0.7-0.3,1.5-0.3,2.2c-1.1,0-2.2,0-3.3,0c-0.2,0-0.2,0.3,0,0.3c1.1,0,2.2,0.1,3.2,0
		c-0.1,1-0.1,2-0.1,3c-1.1,0.2-2.2,0.2-3.4,0c-0.1,0-0.2,0.2-0.1,0.2c1.1,0.3,2.3,0.4,3.5,0.2c0,1.1,0.1,2.2,0.3,3.2
		c-1.1,0-2.3,0-3.4,0c-0.2,0-0.2,0.3,0,0.4c1.2,0,2.3,0,3.5,0c0,0.3,0.1,0.6,0.1,0.8c0.1,0.5,0.1,1,0.2,1.6c-1.1,0-2.2,0-3.3,0.1
		c-0.1,0-0.1,0.2,0,0.2c1.1,0,2.2,0.1,3.3,0.1c0.1,0.7,0.2,1.5,0.3,2.3c-1.1-0.1-2.3-0.2-3.4-0.3c-0.3,0-0.3,0.4,0,0.4
		c1.2,0.1,2.3,0.2,3.5,0.2c0.1,0.7,0.2,1.5,0.4,2.2c-1.2,0-2.4,0.1-3.6,0.2c-0.2,0-0.2,0.3,0,0.3c1.2,0,2.4-0.1,3.7-0.1
		c0.2,0.9,0.4,1.7,0.6,2.5c-1.4,0-2.9,0-4.3,0c-0.2,0-0.2,0.3,0,0.3c1.5,0,2.9,0.1,4.4,0c0.2,0.7,0.5,1.4,0.7,2.1
		c-1.5-0.1-3.1,0-4.6,0c-0.2,0-0.2,0.3,0,0.3c1.6,0.1,3.2,0.1,4.8,0c0.4,0.9,0.9,1.8,1.4,2.6c-1.8-0.1-3.7,0-5.5,0.1
		c-0.2,0-0.2,0.3,0,0.3c1.9,0.1,3.9,0.2,5.8,0.1c0.4,0.4,0.7,0.9,1.2,1.2c0.3,0.2,0.6,0.4,0.9,0.6c-2.2,0.1-4.4,0.3-6.6,0.5
		c-0.2,0-0.3,0.4,0,0.4c2.6-0.1,5.3-0.2,7.9-0.3c1.4,0.5,2.8,0.3,4.2-0.2c1.4-0.1,2.7-0.2,4.1-0.2c0.2,0.7,0.4,1.3,0.7,1.9
		c0.1,0.3,0.2,0.6,0.4,0.9c-5-0.8-10.3-0.4-15.2,0.5c-0.1,0-0.1,0.3,0,0.3c5.2-0.5,10.2-0.4,15.3-0.4c0.3,0.7,0.7,1.5,1.1,2.2
		c-5.1-0.3-10.3,0-15.3,0.7c-0.2,0-0.1,0.3,0,0.3c5.2-0.2,10.3-0.4,15.5-0.6c0.1,0.2,0.2,0.3,0.4,0.5C56.6,53.1,55.5,53.8,54.3,54.5
		z"/>
	<path class="st0" d="M55.5,49.3C55.5,49.3,55.5,49.3,55.5,49.3"/>
</g>
<g>
	<path class="st0" d="M24.3,53.1c0.6,0,1.1,0.7,1.1,1.5s-0.5,1.5-1.1,1.5s-1.1-0.7-1.1-1.5S23.7,53.1,24.3,53.1 M24.3,51.1
		c-1.7,0-3.1,1.6-3.1,3.5c0,1.9,1.4,3.5,3.1,3.5s3.1-1.6,3.1-3.5C27.4,52.6,26,51.1,24.3,51.1L24.3,51.1z"/>
</g>
<g>
	<path class="st0" d="M15.6,53.1c0.6,0,1.1,0.7,1.1,1.5s-0.5,1.5-1.1,1.5s-1.1-0.7-1.1-1.5S15,53.1,15.6,53.1 M15.6,51.1
		c-1.7,0-3.1,1.6-3.1,3.5c0,1.9,1.4,3.5,3.1,3.5s3.1-1.6,3.1-3.5C18.8,52.6,17.4,51.1,15.6,51.1L15.6,51.1z"/>
</g>
<g>
	<path class="st0" d="M6.9,53.1c0.6,0,1.1,0.7,1.1,1.5s-0.5,1.5-1.1,1.5s-1.1-0.7-1.1-1.5S6.3,53.1,6.9,53.1 M6.9,51.1
		c-1.7,0-3.1,1.6-3.1,3.5c0,1.9,1.4,3.5,3.1,3.5s3.1-1.6,3.1-3.5C10.1,52.6,8.7,51.1,6.9,51.1L6.9,51.1z"/>
</g>
</svg>
