<svg height="512pt" viewBox="0 -72 512.00078 512" width="512pt" xmlns="http://www.w3.org/2000/svg"><path d="m142.230469 262.730469-5.769531-13.851563c-1.832032.765625-3.636719 1.589844-5.429688 2.449219l-66.417969-67.628906c.507813-.636719.800781-.988281.820313-1.011719l-11.394532-9.753906h-.003906l-11.375-9.785156c-.753906.878906-18.640625 21.886718-31.003906 55-16.550781 44.324218-15.457031 89.597656 3.15625 130.921874 4.964844 11.019532 15.539062 18.328126 27.601562 19.074219.675782.039063 1.34375.0625 2.015626.0625 11.261718 0 21.710937-5.828125 27.617187-15.539062 13.523437-22.238281 41.371094-61.691407 75.949219-76.085938zm0 0" fill="#ffb74d"/><path d="m500.34375 218.148438c-12.363281-33.113282-30.25-54.121094-31.003906-55l-22.773438 19.539062c.019532.023438.316406.375.824219 1.011719l-66.421875 67.628906c-1.792969-.859375-3.597656-1.6875-5.429688-2.449219l-5.765624 13.847656-5.765626 13.851563c34.574219 14.398437 62.425782 53.851563 75.945313 76.085937 5.90625 9.710938 16.355469 15.539063 27.617187 15.539063.671876 0 1.34375-.019531 2.015626-.0625 12.0625-.742187 22.636718-8.050781 27.601562-19.074219 18.617188-41.320312 19.707031-86.59375 3.15625-130.917968zm0 0" fill="#ffaa20"/><path d="m194.683594 255.144531-45.191406-180.140625c.195312-.058594.386718-.125.582031-.183594l-8.480469-28.78125c-80.496094 23.722657-121.253906 95.296876-122.949219 98.332032l-5.480469 9.8125 140.726563 143.285156 48.578125-29.496094zm0 0" fill="#ffaa20"/><path d="m493.355469 144.371094c-1.695313-3.035156-42.449219-74.609375-122.949219-98.332032l-8.480469 28.78125c.195313.058594.386719.125.585938.183594l-45.191407 180.144532-7.789062 12.820312 48.582031 29.5 140.722657-143.285156zm0 0" fill="#ff8900"/><path d="m373.644531 40.5-43.898437 231.554688h-147.492188l-43.898437-231.554688 4.972656-5.523438c.898437-1 9.320313-10.019531 27.625-18.5625 23.316406-10.890624 51.929687-16.414062 85.046875-16.414062h.671875c32.835937.0820312 61.222656 5.589844 84.375 16.414062 18.304687 8.542969 26.726563 17.5625 27.628906 18.5625zm0 0" fill="#ffb74d"/><path d="m373.644531 40.5-43.898437 231.554688h-73.074219v-272.054688c32.835937.0820312 61.222656 5.589844 84.375 16.414062 18.304687 8.542969 26.726563 17.5625 27.628906 18.5625zm0 0" fill="#ffaa20"/></svg>