<?xml version="1.0" encoding="iso-8859-1"?>
<!-- Generator: Adobe Illustrator 18.1.1, SVG Export Plug-In . SVG Version: 6.00 Build 0)  -->
<svg version="1.1" id="Capa_1" xmlns="http://www.w3.org/2000/svg" xmlns:xlink="http://www.w3.org/1999/xlink" x="0px" y="0px"
	 viewBox="0 0 61.779 61.779" style="enable-background:new 0 0 61.779 61.779;" xml:space="preserve">
<g>
	<g>
		<path style="fill:#010002;" d="M37.727,33.754c4.289-2.734,8.795-5.097,13.518-7.019c2.818-1.147,1.587-5.782-1.273-4.617
			c-4.468,1.818-8.757,3.941-12.867,6.407c-0.033-0.036-0.062-0.072-0.097-0.107c-0.991-0.978-2.507-1.435-3.905-1.244
			c-1.602-4.289-4.08-8.14-7.137-11.622c-2.04-2.325-5.413,1.075-3.385,3.385c2.941,3.352,5.189,7.094,6.511,11.314
			c-1.355,1.559-2.713,3.117-4.079,4.667c-1.823-1.797-3.966-3.256-6.411-4.297c-4.656-1.982-8.813,5.765-10.479,9.055
			c-0.471,0.929-0.433,1.827-0.097,2.578c-2.639,1.314-5.081,3.146-7.215,5.494c-2.592,2.848,1.629,7.092,4.231,4.229
			c5.096-5.598,11.794-7.467,19.034-5.214c1.623,0.506,2.835-0.327,3.375-1.516c0.451-0.215,0.866-0.512,1.21-0.906
			c2.795-3.189,5.615-6.36,8.38-9.576C37.311,34.451,37.538,34.11,37.727,33.754z M21.185,40.037
			c-2.203-0.272-4.38-0.236-6.496,0.093c0.762-1.265,1.634-2.431,2.746-3.421c1.469,0.818,2.755,1.795,3.86,2.986
			C21.254,39.809,21.217,39.922,21.185,40.037z"/>
		<circle style="fill:#010002;" cx="37.854" cy="21.335" r="4.605"/>
		<path style="fill:#010002;" d="M58.065,9.493l-1.018,8.946c2.314,0.263,4.419-1.525,4.7-3.996
			C62.029,11.974,60.382,9.758,58.065,9.493z"/>
		<path style="fill:#010002;" d="M56.527,6.151c-0.131-0.015-0.256,0.148-0.279,0.365l-1.643,14.415
			c-0.024,0.216,0.061,0.403,0.188,0.418l1.705-2.682l1.062-9.323L56.527,6.151z"/>
		<path style="fill:#010002;" d="M36.688,47.535h-0.3v1.196h0.3c5.225,0,9.477-4.25,9.477-9.476v-0.301h-1.196v0.301
			C44.967,43.823,41.254,47.535,36.688,47.535z"/>
		<path style="fill:#010002;" d="M51.861,37.561c0,9.303-7.568,16.871-16.871,16.871h-0.299v1.196h0.299
			c9.962,0,18.068-8.104,18.068-18.067v-0.3h-1.197V37.561z"/>
	</g>
</g>
<g>
</g>
<g>
</g>
<g>
</g>
<g>
</g>
<g>
</g>
<g>
</g>
<g>
</g>
<g>
</g>
<g>
</g>
<g>
</g>
<g>
</g>
<g>
</g>
<g>
</g>
<g>
</g>
<g>
</g>
</svg>
