<svg height="512pt" viewBox="-47 0 512 512.00064" width="512pt" xmlns="http://www.w3.org/2000/svg"><path d="m229.960938 468.941406h79.101562v43.058594h-79.101562zm0 0" fill="#838383"/><path d="m288.628906 468.941406h20.433594v43.058594h-20.433594zm0 0" fill="#706f6f"/><path d="m86.394531 468.941406h79.105469v43.058594h-79.105469zm0 0" fill="#838383"/><g fill="#ffcebf"><path d="m73.09375 397.863281h-33.882812v-93.304687c0-9.355469 7.585937-16.941406 16.941406-16.941406 9.355468 0 16.941406 7.585937 16.941406 16.941406zm0 0"/><path d="m86.394531 477.796875c0-25.847656-33.859375-36.25-51.3125-49.707031-12.996093-10.019532-28.488281-24.820313-32.292969-41.515625-3.796874-16.660157-2.613281-31.894531-2.613281-48.835938 0-10.957031 0-21.914062 0-32.871093 0-10.984376 8.902344-19.886719 19.886719-19.886719s19.886719 8.902343 19.886719 19.886719v51.324218c0 17.976563 17.199219 31.011719 32.132812 37.535156 5.988281 2.613282 23.484375 11.90625 28.910157 3.375 4.042968-6.367187-6.257813-16.011718-9.152344-21.035156-4.171875-7.234375-4.453125-15.601562 2.433594-21.503906 6.378906-5.464844 15.851562-5.246094 21.96875.511719 13.945312 13.128906 28.488281 25.828125 37.714843 42.921875 8.625 15.972656 11.542969 33.96875 11.542969 51.957031v27.84375zm0 0"/><path d="m322.363281 396.667969h33.882813v-92.109375c0-9.355469-7.585938-16.941406-16.941406-16.941406-9.355469 0-16.941407 7.585937-16.941407 16.941406zm0 0"/><path d="m309.0625 477.796875c0-25.847656 33.859375-36.25 51.3125-49.707031 13-10.019532 28.488281-24.820313 32.296875-41.515625 3.796875-16.660157 2.609375-31.894531 2.609375-48.835938 0-10.957031 0-21.914062 0-32.871093 0-10.984376-8.902344-19.886719-19.886719-19.886719-10.980469 0-19.886719 8.902343-19.886719 19.886719v51.324218c0 17.976563-17.199218 31.011719-32.132812 37.535156-5.988281 2.613282-23.484375 11.90625-28.90625 3.375-4.046875-6.367187 6.253906-16.011718 9.148438-21.035156 4.171874-7.234375 4.453124-15.601562-2.433594-21.503906-6.378906-5.464844-15.851563-5.246094-21.96875.511719-13.945313 13.128906-28.488282 25.828125-37.714844 42.921875-8.625 15.972656-11.539062 33.96875-11.539062 51.957031v27.84375zm0 0"/></g><path d="m392.667969 386.570312c-3.804688 16.699219-19.296875 31.496094-32.296875 41.523438-17.453125 13.453125-51.308594 23.851562-51.308594 49.707031h-20.433594c0-36.769531 33.21875-52.25 50.675782-65.707031 13-10.023438 29.921874-16.421875 33.726562-33.121094 3.804688-16.660156 2.613281-31.890625 2.613281-48.839844v-32.863281c0-4.476562-1.476562-8.609375-3.964843-11.9375 1.199218-.226562 2.449218-.347656 3.71875-.347656 10.984374 0 19.882812 8.90625 19.882812 19.882813v32.871093c0 16.949219 1.1875 32.171875-2.613281 48.832031zm0 0" fill="#ffbfab"/><path d="m122.511719 305.226562c-5.925781-4.039062-11.078125-9.167968-15.347657-14.957031-5.835937-7.882812-10.042968-16.988281-12.378906-26.199219-4.183594-16.5-7.1875-30.894531-23.050781-41.21875l-33.671875-22.949218c-5.636719.894531-11.734375-.324219-16.957031-3.886719-10.480469-7.144531-13.484375-20.996094-6.707031-30.941406 6.777343-9.945313 20.769531-12.214844 31.253906-5.070313 5.222656 3.558594 8.589844 8.785156 9.8125 14.363282l33.671875 22.949218c15.414062 10.988282 29.910156 8.523438 46.792969 6.382813 9.425781-1.195313 19.441406-.605469 28.910156 1.945312 6.953125 1.855469 13.605468 4.773438 19.53125 8.8125 2.445312 1.667969 4.785156 3.492188 6.996094 5.457031 4.597656 4.070313 8.644531 8.757813 11.9375 13.882813 14.777343 22.960937 11.945312 52.816406-8.90625 69.644531-17.566407 14.183594-43.234376 16.449219-64.210938 6.234375-2.636719-1.285156-5.210938-2.769531-7.675781-4.449219zm0 0" fill="#5290d9"/><path d="m200.261719 297.84375c-1.761719 1.992188-3.722657 3.863281-5.867188 5.601562-17.558593 14.179688-43.230469 16.445313-64.210937 6.230469-2.632813-1.289062-5.207032-2.773437-7.675782-4.445312-5.921874-4.039063-11.074218-9.171875-15.34375-14.960938-5.832031-7.882812-10.039062-16.984375-12.382812-26.199219-4.171875-16.5-7.179688-30.890624-23.039062-41.214843l-33.675782-22.953125c-5.636718.890625-11.734375-.328125-16.953125-3.886719-10.492187-7.144531-13.496093-21.003906-6.714843-30.941406 2.585937-3.789063 6.21875-6.460938 10.304687-7.925781-2.796875 1-2.824219 10.4375-2.589844 12.675781.480469 4.640625 2.570313 9.75 5.820313 13.171875 5.039062 5.304687 10.945312 3.234375 17.113281 4.894531 6.050781 1.628906 11.097656 7.304687 16.144531 10.742187 7.246094 4.9375 14.40625 10.039063 21.757813 14.820313 15.859375 10.328125 18.867187 24.726563 23.050781 41.226563 2.332031 9.203124 6.539062 18.316406 12.371094 26.199218 4.269531 5.789063 9.421875 10.921875 15.355468 14.960938 2.46875 1.671875 5.03125 3.160156 7.675782 4.445312 18.933594 9.214844 41.6875 8.269532 58.859375-2.441406zm0 0" fill="#0573cf"/><path d="m122.511719 305.226562c-5.925781-4.039062-11.078125-9.167968-15.347657-14.957031l57.679688-84.625c6.949219 1.855469 13.605469 4.773438 19.53125 8.8125 2.445312 1.667969 4.785156 3.492188 6.992188 5.457031l-61.179688 89.761719c-2.636719-1.285156-5.210938-2.769531-7.675781-4.449219zm0 0" fill="#f39d0a"/><path d="m137.867188 298.402344-7.683594 11.273437c-2.632813-1.289062-5.207032-2.773437-7.675782-4.445312-5.921874-4.042969-11.074218-9.171875-15.34375-14.960938l8.785157-12.890625c.769531 1.1875 1.574219 2.355469 2.421875 3.5 4.269531 5.789063 9.421875 10.917969 15.355468 14.960938 1.355469.914062 2.730469 1.773437 4.140626 2.5625zm0 0" fill="#db8a00"/><path d="m260.335938 107.292969c-6.722657 2.496093-13.890626 3.734375-21.082032 3.867187-9.808594.199219-19.667968-1.636718-28.535156-5.058594-15.871094-6.136718-29.351562-12.015624-46.953125-5.050781l-38.199219 14.1875c-2.527344 5.121094-7.054687 9.386719-12.976562 11.585938-11.894532 4.417969-24.929688-1.148438-29.121094-12.429688-4.191406-11.285156 2.050781-24.011719 13.945312-28.429687 5.925782-2.199219 12.136719-1.921875 17.394532.304687l38.199218-14.1875c17.878907-6.210937 24.253907-19.460937 32.277344-34.472656 4.480469-8.378906 10.753906-16.207031 18.3125-22.457031 5.535156-4.59375 11.765625-8.332032 18.488282-10.828125 2.777343-1.03125 5.617187-1.886719 8.496093-2.550781 5.976563-1.394532 12.144531-1.984376 18.230469-1.7070318 27.28125 1.2343748 49.992188 20.8164058 51.652344 47.5585938 1.410156 22.535156-11.59375 44.777344-32.0625 55.980469-2.574219 1.410156-5.269532 2.648437-8.066406 3.6875zm0 0" fill="#e63950"/><path d="m299.289062 39.605469c.605469 2.589843 1 5.269531 1.175782 8.027343 1.410156 22.523438-11.59375 44.773438-32.066406 55.980469-2.570313 1.398438-5.273438 2.640625-8.066407 3.683594-6.71875 2.492187-13.882812 3.726563-21.078125 3.863281-9.804687.199219-19.664062-1.640625-28.535156-5.058594-15.875-6.144531-29.347656-12.015624-46.949219-5.050781l-38.203125 14.1875c-2.53125 5.113281-7.054687 9.382813-12.976562 11.582031-11.894532 4.421876-24.9375-1.144531-29.125-12.425781-1.589844-4.300781-1.671875-8.8125-.503906-12.988281-.796876 2.855469 6.886718 8.339844 8.84375 9.445312 4.066406 2.292969 9.4375 3.542969 14.113281 2.871094 7.238281-1.042968 8.96875-7.058594 13.890625-11.128906 4.828125-3.992188 12.378906-4.824219 18.105468-6.953125 8.214844-3.054687 16.519532-5.945313 24.671876-9.171875 17.597656-6.964844 31.082031-1.085938 46.960937 5.050781 8.859375 3.421875 18.722656 5.265625 28.527344 5.066407 7.195312-.136719 14.359375-1.371094 21.089843-3.871094 2.789063-1.042969 5.484376-2.277344 8.0625-3.6875 18.472657-10.109375 30.867188-29.21875 32.0625-49.421875zm0 0" fill="#cc2e43"/><path d="m260.335938 107.292969c-6.722657 2.496093-13.890626 3.734375-21.082032 3.867187l-35.65625-96.003906c5.535156-4.59375 11.765625-8.335938 18.488282-10.832031 2.777343-1.03125 5.617187-1.882813 8.496093-2.550781l37.820313 101.835937c-2.574219 1.40625-5.269532 2.644531-8.066406 3.683594zm0 0" fill="#f39d0a"/><path d="m263.648438 90.824219 4.75 12.789062c-2.570313 1.398438-5.273438 2.640625-8.066407 3.683594-6.71875 2.492187-13.882812 3.726563-21.078125 3.863281l-5.433594-14.625c1.417969.058594 2.832032.078125 4.257813.050782 7.191406-.132813 14.359375-1.367188 21.085937-3.871094 1.527344-.574219 3.023438-1.203125 4.484376-1.890625zm0 0" fill="#db8a00"/><path d="m406.507812 180.550781c-4.121093 5.871094-9.320312 10.953125-15.167968 15.144531-7.964844 5.726563-17.125 9.808594-26.371094 12.015626-16.550781 3.953124-30.988281 6.757812-41.53125 22.476562l-23.414062 33.351562c.820312 5.652344-.484376 11.730469-4.117188 16.902344-7.289062 10.382813-21.183594 13.195313-31.03125 6.28125-9.851562-6.917968-11.929688-20.9375-4.640625-31.320312 3.632813-5.175782 8.90625-8.46875 14.496094-9.617188l23.414062-33.351562c11.203125-15.257813 8.9375-29.785156 7.027344-46.699219-1.0625-9.441406-.335937-19.445313 2.34375-28.878906 1.957031-6.925781 4.964844-13.539063 9.085937-19.410157 1.699219-2.421874 3.554688-4.734374 5.550782-6.917968 4.132812-4.539063 8.875-8.523438 14.046875-11.746094 23.164062-14.457031 52.976562-11.210938 69.515625 9.871094 13.941406 17.757812 15.847656 43.453125 5.34375 64.289062-1.316406 2.617188-2.835938 5.167969-4.550782 7.609375zm0 0" fill="#00e294"/><path d="m400.199219 102.710938c1.964843 1.789062 3.808593 3.773437 5.519531 5.945312 13.9375 17.75 15.847656 43.449219 5.34375 64.289062-1.324219 2.613282-2.84375 5.167969-4.550781 7.609376-4.121094 5.867187-9.324219 10.949218-15.171875 15.140624-7.960938 5.722657-17.125 9.804688-26.367188 12.019532-16.558594 3.945312-30.984375 6.75-41.53125 22.46875l-23.414062 33.355468c.8125 5.648438-.492188 11.730469-4.121094 16.898438-7.289062 10.390625-21.1875 13.203125-31.03125 6.285156-3.75-2.640625-6.375-6.308594-7.785156-10.410156.964844 2.808594 10.402344 2.964844 12.640625 2.761719 4.648437-.414063 9.785156-2.433594 13.253906-5.640625 5.371094-4.964844 3.382813-10.898438 5.128906-17.042969 1.710938-6.027344 7.457031-10.996094 10.964844-15.996094 5.035156-7.175781 10.234375-14.265625 15.117187-21.546875 10.546876-15.71875 24.984376-18.523437 41.542969-22.480468 9.230469-2.207032 18.402344-6.285157 26.367188-12.007813 5.847656-4.191406 11.046875-9.273437 15.167969-15.152344 1.707031-2.441406 3.230468-4.984375 4.554687-7.609375 9.476563-18.804687 8.84375-41.566406-1.628906-58.886718zm0 0" fill="#05cc7a"/><path d="m406.507812 180.550781c-4.121093 5.871094-9.320312 10.953125-15.167968 15.144531l-83.820313-58.84375c1.953125-6.921874 4.960938-13.535156 9.082031-19.40625 1.699219-2.421874 3.558594-4.738281 5.550782-6.917968l88.910156 62.414062c-1.320312 2.617188-2.839844 5.167969-4.554688 7.609375zm0 0" fill="#f39d0a"/><path d="m399.898438 165.105469 11.164062 7.839843c-1.324219 2.613282-2.847656 5.167969-4.554688 7.609376-4.121093 5.867187-9.320312 10.949218-15.167968 15.140624l-12.769532-8.960937c1.199219-.753906 2.378907-1.542969 3.535157-2.375 5.847656-4.191406 11.046875-9.273437 15.167969-15.148437.933593-1.34375 1.8125-2.707032 2.625-4.105469zm0 0" fill="#db8a00"/></svg>