<?xml version="1.0" encoding="UTF-8" standalone="no"?>
<svg
   xmlns:svg="http://www.w3.org/2000/svg"
   xmlns="http://www.w3.org/2000/svg"
   version="1.0"
   width="800"
   height="460"
   id="svg2">
  <defs
     id="defs4" />
  <g
     transform="translate(-125.38064,88.142937)"
     id="layer1">
    <path
       d="M 137.59401,14.318277 L 137.59401,256.53719 L 907.96783,255.52288 L 907.00423,13.202528 L 137.59401,14.318277 z M 900.71546,16.955501 L 900.91832,73.655826 L 149.76581,74.720859 L 149.76581,18.020534 L 900.71546,16.955501 z M 900.96904,77.408799 L 901.1719,130.5083 L 149.76581,131.57333 L 149.76581,78.473832 L 900.96904,77.408799 z M 901.1719,134.26127 L 901.37477,189.28797 L 149.76581,190.35301 L 149.76581,135.3263 L 901.1719,134.26127 z M 901.37477,192.99023 L 901.62835,251.71919 L 149.76581,252.78422 L 149.76581,194.05526 L 901.37477,192.99023 z "
       style="fill:#000000;fill-opacity:1;fill-rule:evenodd;stroke:none;stroke-width:2.29999995;stroke-linecap:butt;stroke-linejoin:miter;stroke-miterlimit:4;stroke-dasharray:none;stroke-opacity:1"
       id="path4165" />
    <path
       d="M 230.48461,342.69507 C 230.48461,342.69507 251.12163,330.73082 249.47963,311.84774 C 247.83762,292.96468 236.34359,285.57566 220.74453,287.21766 C 205.14546,288.85967 194.47243,303.63771 196.93544,320.05777 C 199.39846,336.47783 220.74453,361.10791 245.37461,361.10791 C 270.0047,361.10791 288.88776,349.61388 296.27679,328.2678 C 303.66582,306.92173 305.30782,301.99572 302.84481,264.22958 C 300.3818,226.46346 291.47019,158.43964 281.61816,123.1365 C 271.76612,87.833382 259.64862,36.232362 262.84704,19.369203 C 265.84726,3.551017 284.1317,-38.779583 294.98557,-44.818308 C 294.98557,-44.818308 308.59183,-14.911388 299.56081,3.9716746 C 290.52977,22.854737 263.43668,60.620878 243.7326,79.50394 C 224.02854,98.387002 192.2408,124.80091 191.41979,172.37429 C 190.8571,205.21984 219.92353,240.42049 232.23857,250.27253 C 244.55361,260.12457 281.49874,271.61861 313.51784,258.48256 C 345.53696,245.34652 360.31501,225.64244 362.77801,195.26533 C 365.24104,164.88824 340.61095,127.9431 311.05484,123.01709 C 281.49874,118.09108 250.39824,133.01356 237.98558,159.96222 C 223.17163,192.12421 247.35225,225.29808 251.94263,223.17944 L 252.76364,216.61142 C 250.04219,215.25069 233.99345,184.13792 267.18343,166.29887 C 294.6661,151.52741 329.25417,168.32162 330.99028,204.03514 C 331.76471,219.96589 320.44651,252.72617 282.31974,253.55655 C 237.18294,254.53196 214.9975,218.25343 215.81851,192.80233 C 216.63951,167.35125 223.20753,143.54216 260.15266,105.77603 C 297.09779,68.009893 315.15985,42.558812 311.87585,-7.5223718 C 308.59183,-57.603539 286.88749,-75.785023 286.88749,-75.785023 C 286.88749,-77.898092 246.5464,-46.776556 245.7254,-3.9920615 C 244.95343,36.238058 267.54169,105.77603 280.67773,191.98133 C 293.81379,278.18663 295.45579,323.34179 278.21472,338.11984 C 260.97367,352.89788 243.70274,354.74141 230.48461,342.69507 z "
       style="opacity:1;fill:#000000;fill-opacity:1;fill-rule:nonzero;stroke:none;stroke-width:1px;stroke-linecap:butt;stroke-linejoin:miter;stroke-opacity:1"
       id="path2221" />
    <path
       d="M 586.16887,150.16093 L 592.57661,154.96673 C 592.57661,154.96673 612.33382,124.52995 617.13964,95.695102 C 621.94544,66.860258 618.70344,30.211944 611.26587,22.540039 C 601.83725,12.814361 576.74325,-6.8394524 568.54759,-15.906425 C 560.16809,-25.176763 559.65352,-41.54578 560.00392,-42.071375 L 554.13016,-39.401481 L 555.73209,130.40372 C 555.73209,130.40372 539.77561,127.66849 531.78922,128.4794 C 518.82369,129.79589 498.59639,141.08329 492.18864,154.43276 C 485.78089,167.78221 485.78089,187.53942 504.47014,190.7433 C 523.1594,193.94718 537.57682,189.14136 546.12048,182.73362 C 554.66413,176.32588 567.47962,165.11232 567.47962,152.83082 C 567.47962,140.54931 563.2078,134.67555 563.2078,120.7921 C 563.2078,106.90866 563.74177,27.879826 563.74177,27.879826 C 563.74177,27.879826 570.14951,35.889506 578.69318,37.49143 C 587.23682,39.093369 598.45038,36.423475 606.46006,50.306928 C 614.46975,64.190365 613.93576,84.481559 605.92608,108.51058 C 597.9164,132.53963 585.6349,150.16093 586.16887,150.16093 z "
       style="opacity:1;fill:#000000;fill-opacity:1;fill-rule:evenodd;stroke:none;stroke-width:1px;stroke-linecap:butt;stroke-linejoin:miter;stroke-opacity:1"
       id="path3194" />
  </g>
</svg>