<svg height="511pt" viewBox="-52 0 511 511.99803" width="511pt" xmlns="http://www.w3.org/2000/svg"><g fill="#5b5d6d"><path d="m258.324219 107.824219c-3.3125-8.316407-7.363281-16.382813-11.277344-24.183594-4.070313-8.128906-8.277344-16.535156-11.640625-25.121094-2.601562-6.6875-4.394531-13.328125-5.476562-20.292969l-.746094-4.785156-77.539063 9.503906-1.226562 2.289063c-4.648438 8.6875-11.019531 20.582031-12.015625 32.992187-.90625 11.402344 3.742187 26.140626 16.078125 31.554688 3.511719 1.546875 7.488281 2.296875 12.160156 2.296875 4.179687 0 8.519531-.59375 12.707031-1.167969 1.460938-.199218 2.921875-.394531 4.34375-.570312 2.28125-.273438 4.484375-.410156 6.535156-.410156 2.8125 0 8.105469-.199219 10.570313 1.410156 2.90625 1.902344 3.855469 7.320312 4.167969 10.464844.683594 6.898437-.164063 13.898437.953125 20.761718 1.015625 6.230469 3.945312 11.359375 7.433593 16.523438 6.699219 9.902344 17.320313 17.152344 29.066407 19.503906 5.394531 1.082031 10.914062 1.164062 16.394531 1.03125 5.320312-.128906 7.957031-1.429688 11.902344-5.125l1.800781-1.703125-.265625-2.460937c-2.769531-25.988282-7.066406-45.265626-13.925781-62.511719zm0 0"/><path d="m194.078125 251.761719c.488281-.789063.972656-1.574219 1.433594-2.335938 9.722656-15.988281 12.359375-28.289062 8.296875-38.726562-3.035156-7.773438-10.273438-13.871094-18.4375-15.539063-1.585938-.328125-3.222656-.496094-4.863282-.496094-6.859374 0-13.496093 2.753907-18.214843 7.558594-4.933594 5.050782-7.390625 11.617188-9.671875 18.480469l-.332032.996094c-2.058593 6.226562-4.003906 12.109375-7.871093 16.921875-2.15625 2.6875-5.003907 4.777344-8.964844 6.574218l-3.042969 1.378907.582032 17.488281-.578126-17.40625s-8.183593 2.347656-8.695312 2.492188c-6.144531 1.746093-12.496094 3.554687-17.605469 7.160156-12.492187 8.78125-20.773437 22.527344-22.152343 36.777344-2.238282 23.085937 14.046874 47.195312 36.3125 53.738281 1.894531.554687 3.730468.984375 5.902343 1.480469l.109375.027343c1.050782.246094 2.101563.492188 3.160156.757813l6.429688 1.609375.007812.285156 2.402344 1.390625c.796875.460938 1.410156.859375 1.9375 1.257812 2.613282 1.976563 4.589844 4.605469 6.710938 7.429688 1.960937 2.609375 3.992187 5.308594 6.613281 7.457031 3.894531 3.199219 9.113281 4.964844 14.695313 4.964844 5.214843 0 10.4375-1.5625 14.710937-4.398437 8.066406-5.382813 13.496094-15.152344 14.523437-26.128907.851563-8.988281-1.066406-18.90625-5.703124-29.484375-.957032-2.171875-1.996094-4.34375-3.164063-6.753906-3.371094-6.96875-6.855469-14.171875-7.226563-21.804688-.5625-11.585937 5.671876-21.730468 12.300782-32.515624zm0 0"/><path d="m45.949219 245.136719c8.382812-9.398438 12.171875-21.691407 10.136719-32.882813-2.207032-12.167968-12.035157-22.511718-23.367188-24.59375-1.390625-.257812-2.824219-.386718-4.257812-.386718-8.949219 0-17.78125 5.070312-21.972657 12.613281l-.628906 1.128906-.230469 141.917969 4.695313.292968c.773437.046876 1.558593.074219 2.339843.074219 14.921876 0 29.484376-8.742187 36.230469-21.75 7.40625-14.265625 5.039063-33.355469-5.625-45.386719-.632812-.71875-1.296875-1.417968-1.96875-2.125l-.3125-.328124c-2.785156-2.910157-5.664062-5.914063-6.292969-9.636719-.933593-5.511719 2.746094-9.886719 8.480469-15.945313.878907-.929687 1.875-1.980468 2.773438-2.992187zm0 0"/></g><path d="m392.527344 242.132812c-.542969-.421874-1.164063-.761718-1.882813-1-6.511719-2.183593-13.472656-3.523437-20.214843-4.773437-13.820313-2.558594-27.875-3.71875-41.925782-3.71875-16.023437 0-32.679687 1.460937-50.925781 4.464844-.152344.023437-.359375.054687-.609375.097656l-.277344.054687c-16.390625 2.773438-32.328125 6.085938-41.585937 8.648438l-8.988281 2.488281-.6875-.304687v.492187l-4.269532 1.183594 4.269532 1.78125-.042969 157.195313c-.007813 18.339843-.019531 39.121093 8.839843 56.800781.457032.914062.921876 1.78125 1.339844 2.527343 8.566406 15.296876 24.691406 27.367188 44.230469 33.113282 13.523437 3.980468 26.429687 6 38.359375 6 35.761719 0 51.996094-17.535156 57.320312-25.078125 11.960938-16.964844 14.71875-39.304688 17.386719-60.929688.695313-5.628906 1.347657-10.941406 2.167969-16.128906l.5-3.183594c3.109375-19.707031 6.046875-38.324219 6.070312-57.988281v-.3125c-.011718-25.421875-1.597656-51.285156-3.128906-76.292969-.261718-4.253906.109375-9.167969-1.109375-13.269531-1.175781-3.929688-1.566406-9.34375-4.835937-11.867188zm-20.898438 194.859376c-2.515625 12.972656-6.027344 27.625-15.835937 37.308593-8.703125 8.601563-22.007813 12.964844-39.554688 12.964844-2.957031 0-6.042969-.125-9.425781-.382813-25.382812-2.007812-43.808594-10.429687-53.289062-24.359374-7.433594-10.925782-9.210938-24.945313-10.292969-37.230469-3.855469-43.425781-1.890625-87.214844 5.847656-130.15625 1.335937-.644531 5.078125-1.351563 11.148437-2.109375 6.175782-.769532 13.210938-1.371094 16.992188-1.691406l1.488281-.125c.523438-.042969.929688-.078126 1.113281-.097657 9.910157-.960937 19.984376-1.445312 29.941407-1.445312 1.171875 0 2.339843.003906 3.515625.019531l1.035156.007812c17.128906.195313 36.546875.417969 52.742188 5.742188 12.3125 4.046875 14.445312 13.6875 14.910156 22.578125 1.820312 34.835937-1.5625 73.753906-10.335938 118.976563zm0 0" fill="#b2eaf9"/><path d="m252.382812 291.148438.058594 9.847656c-.03125-.007813-.203125-.039063-.449218-.167969 19.921874 10.410156 42.839843 15.910156 66.269531 15.910156 19.667969 0 39.246093-3.964843 56.621093-11.472656l7.707032-3.328125-6.601563-5.1875c-2.25-1.773438-4.867187-3.136719-7.996093-4.160156-16.636719-5.476563-36.304688-5.695313-53.710938-5.890625l-.976562-.011719c-1.195313-.011719-2.394532-.019531-3.597657-.019531-10.042969 0-20.191406.492187-30.085937 1.457031 0 0-1.53125.132812-2.121094.179688-11.84375.996093-20.292969 1.953124-25.117188 2.84375zm0 0" fill="#fff"/><path d="m89.167969 106.863281c15.042969 21.484375 30.601562 43.699219 37.273437 69.324219 4.160156 15.964844 4.714844 32.695312 5.253906 48.875l.855469 25.449219 7.214844-4.164063c2.871094-1.65625 5.160156-3.566406 7.003906-5.855468 4.1875-5.226563 6.3125-11.632813 8.382813-17.875l.320312-.984376c2.074219-6.246093 4.476563-12.722656 8.96875-17.3125 4.070313-4.160156 10.101563-6.640624 16.132813-6.640624 1.421875 0 2.832031.140624 4.183593.414062 7.203126 1.46875 13.582032 6.84375 16.253907 13.699219 5.492187 14.074219-3.894531 26.65625-9 39.03125-5.699219 13.804687-9.601563 28.199219-5.261719 43.046875 1.738281 5.953125 4.675781 11.496094 6.484375 17.425781 3.027344 9.945313 2.214844 21.199219 1.253906 31.375-.941406 10.097656-5.878906 19.035156-13.214843 23.914063-3.792969 2.527343-8.417969 3.921874-13.027344 3.921874-4.871094 0-9.414063-1.53125-12.800782-4.308593-2.359374-1.933594-4.195312-4.382813-6.152343-6.988281-1.4375-1.902344-2.921875-3.867188-4.621094-5.613282l-9.007813-9.25 4.375 131.820313c0 .058593-.007812.113281-.015624.167969l-.769532 5.75 5.800782-.089844c28.554687-.433594 57.613281-5.484375 84.035156-14.601563l5.035156-1.738281-2.054688-4.917969c-.058593-.144531-.113281-.292969-.167968-.441406-.0625-.171875-.335938-.894531-.335938-.894531-.148437-.386719-.300781-.773438-.429687-1.136719-.195313-.566406-.386719-1.140625-.585938-1.746094l-.105469-.324219c-.136718-.40625-.277343-.820312-.398437-1.234374l-.03125-.105469c-.171875-.542969-.324219-1.09375-.476563-1.640625l-.46875-1.683594c-.136718-.566406-.277343-1.136719-.421874-1.777344l-.109376-.449218c-.09375-.375-.183593-.753907-.28125-1.222657-.15625-.6875-.285156-1.367187-.421874-2.105469-.183594-.910156-.34375-1.832031-.492188-2.726562l-.109375-.660156c-.074219-.429688-.144531-.863282-.203125-1.230469l-.230469-1.773437c-.085937-.589844-.167969-1.183594-.238281-1.796876-.058594-.507812-.113281-1.019531-.164062-1.519531l-.019532-.195312c-.066406-.613281-.125-1.21875-.1875-1.882813-.035156-.351562-.0625-.703125-.09375-1.054687l-.191406-2.421875-.101562-1.769532c-.039063-.585937-.074219-1.167968-.105469-1.800781l-.074219-1.585937-.117188-3.480469c-.019531-.617187-.027343-1.234375-.039062-1.847656l-.0625-3.601563c0-.464844 0-.925781-.007812-1.378906l-.011719-2.332031.042969-162.566407c0-.035156.003906-.066406.007812-.101562l.019531-.140625c.007813-.070313.011719-.109375.105469-.222656.039062-.042969.082031-.09375.128906-.136719l.171875-.164062.113281-.09375c.414063-.347657 1.011719-.707032 1.785157-1.078126.042969-.019531.285156-.125.285156-.125l.257813-.125c4.082031-1.828124 11.269531-3.578124 20.792968-5.636718l1.566406-.332032.328126-.074218c.433593-.085938.863281-.175782 1.351562-.28125.117188-.023438.253906-.050782.40625-.085938l1.746094-.351562 1.25-.257813 5.21875-1.03125 1.339844-.257812s1.566406-.292969 1.707031-.324219l2.621093-.484375c.339844-.0625.679688-.128906 1.003907-.183594 0 0 .445312-.085937.546875-.105469l3.238281-.585937c.5625-.101563 1.105469-.195313 1.648437-.289063l4.46875-.773437-2.5625-34.773437-.082031-1.007813c-.589843-8.042969-1.136719-15.296875-1.804687-22.589844l-.789063-8.59375-7.0625 4.957031c0 1.425782-7.628906 3.996094-8.828125 4.382813-3.160156 1.027344-6.476562 1.59375-9.804687 1.664063-5.214844.109374-11.226563-.800782-15.519531-3.988282-8.417969-6.253906-17.117188-14.53125-21.175782-24.328125-3.945312-9.539062-4.800781-20.042969-5.222656-30.359375-.253906-6.273437-.664062-13.261718-5.226562-17.578125-3.871094-3.660156-9.757813-4.296875-15.03125-3.539062-5.273438.753906-10.324219 2.6875-15.601563 3.4375-6.664063.949219-17.433594.714843-21.867187-5.054688-4.566407-5.9375-6.144532-13.941406-5.554688-21.277343.78125-9.832032 4.976562-19.042969 9.390625-27.527344l4.382813-8.425782-97.765626 11.972657 3.03125 6.285156c7.894532 16.378906 18.480469 31.480469 28.722657 46.097656zm0 0" fill="#fff"/><path d="m228.796875 16.964844c.171875-4.59375-.777344-7.757813-2.917969-9.691406-2.28125-2.035157-5.511718-2.269532-7.742187-2.269532-3.046875 0-6.570313.511719-9.6875.964844-1.773438.261719-3.835938.558594-5.828125.761719-28.671875 2.925781-57.347656 5.859375-86.027344 8.796875l-63.992188 6.539062 2.136719 6.003906c2.171875 6.109376 3.035157 12.992188 2.5625 20.457032l-.382812 6.011718 172.285156-21.09375-.28125-4.691406c-.234375-3.804687-.273437-7.664062-.125-11.789062zm0 0" fill="#d8deec"/><path d="m140.160156 479.769531c-.105468-3.25-.214844-6.496093-.324218-9.746093-.800782-24.128907-1.601563-48.261719-2.402344-72.394532-.554688-16.617187-1.375-33.289062-1.644532-49.894531-6.742187-2.167969-14.300781.1875-21.507812-1.960937-7.476562-2.234376-14.355469-6.519532-19.578125-12.324219-8.96875-9.96875-12.964844-24.058594-11.144531-37.339844 2.121094-15.492187 11.695312-28.503906 24.273437-37.351563 4.691407-3.296874 10.800781-5.039062 16.714844-6.726562l.59375-.171875c1.25-.355469 2.488281-.710937 3.703125-1.082031l3.667969-1.117188-.808594-24.492187c-.539063-16.207031-1.09375-32.96875-5.265625-48.972657-.664062-2.578124-1.457031-5.203124-2.394531-7.976562l.457031.125-4.019531-9.488281c-7.785157-18.382813-19.214844-34.710938-31.316407-51.996094l-.222656-.320313c-7.648437-10.933593-15.5625-22.238281-22.28125-34.003906l-6.394531 2.359375-2.984375-15.699219-6.425781 15.304688c-1.625 3.871094-3.488281 7.699219-5.535157 11.367188-3.753906 6.726562-8.078124 13.316406-12.265624 19.691406l-.15625.238281c-8.222657 12.515625-15.992188 24.335937-20.710938 38.078125-.679688 1.984375-1.289062 4.003906-1.863281 6.167969 0 0-1.003907 3.777343-1.011719 3.78125l-.027344.128906-.773437 2.914063.222656-.015626-.128906.691407c-2.183594 11.484375-2.589844 23.113281-2.710938 33.96875l-.113281 10.683593 8.277344-6.757812c4.019531-3.28125 9.25-5.167969 14.347656-5.167969 1.269531 0 2.542969.117188 3.777344.34375 10.304687 1.890625 18.914062 11.007813 20.941406 22.175781 1.871094 10.292969-1.648438 21.640626-9.414062 30.351563-.738282.828125-1.527344 1.664063-2.320313 2.503906l-.386719.410157c-4.925781 5.203124-10.515625 11.097656-9.269531 18.519531.773437 4.601562 3.976563 7.957031 7.078125 11.207031.753906.792969 1.507812 1.582031 2.210938 2.371094 20.273437 22.882812 5.609374 62.683594-24.464844 67.195312-2.65625.398438-5.445313.550782-7.777344 1.886719-5.613281 3.207031-3.1875 16.417969-3.195312 21.996094-.015626 8.183593-.027344 16.363281-.042969 24.550781-.015625 9.738281-.03125 19.476562-.046875 29.214844-.011719 5.503906-.027344 12.355468 2.59375 18.066406l1.097656 2.402344-.578125.359375 1.273437 1.15625.566407 1.234375.472656-.292969 2.601563 2.359375c3.777343 3.425781 8.425781 5.824219 12.492187 7.804688 31.375 15.246093 67.035156 24.136718 103.035156 25.703124.140625.007813.28125.015626.425781.019532l8.980469.484375 1.84375 1.769531-.058593-1.671875 2.792968.148437zm0 0" fill="#d8deec"/><path d="m381.910156 304.167969-2.117187-4.371094-4.429688 1.988281c-17.410156 7.8125-37.148437 11.941406-57.074219 11.941406-22.894531 0-45.257812-5.339843-64.648437-15.417968l-6.792969-8.199219-1.800781 10.792969c-6.875 41.1875-8.492187 83.128906-4.808594 124.65625 1.125 12.679687 2.984375 27.167968 10.804688 38.648437 12.628906 18.570313 37.167969 24.207031 55.53125 25.664063 3.34375.265625 6.605469.398437 9.695312.398437 18.339844 0 32.34375-4.652343 41.632813-13.828125 10.410156-10.300781 14.058594-25.464844 16.664062-38.875 8.816406-45.453125 12.214844-84.609375 10.394532-119.699218-.285157-5.566407-1.285157-10.046876-3.050782-13.699219zm0 0" fill="#f0f2fa"/><path d="m403.460938 266.964844c-.484376-7.929688-.984376-16.125-1.429688-24.167969-.113281-2.066406-1.488281-3.851563-3.460938-4.484375-35.277343-11.355469-72.386718-13.597656-116.445312-6.980469-.71875-9.78125-1.441406-19.5625-2.164062-29.34375l-.078126-1.035156c-2.347656-31.695313-4.777343-64.46875-16.914062-94.972656-3.375-8.460938-7.480469-16.652344-11.449219-24.578125-4.019531-8.023438-8.175781-16.320313-11.453125-24.707032-4.890625-12.542968-6.824218-24.738281-6.269531-39.546874.222656-6.179688-1.273437-10.625-4.574219-13.585938-5.4375-4.878906-13.59375-3.691406-21.488281-2.542969-1.871094.273438-3.804687.554688-5.625.742188-31.746094 3.238281-63.5 6.488281-95.257813 9.738281l-55.269531 5.648438c-1.664062.167968-3.132812 1.160156-3.914062 2.640624-.78125 1.480469-.769531 3.253907.03125 4.722657 3.878906 7.125 10.984375 27.132812-6.742188 58.914062-3.71875 6.660157-8.050781 13.253907-12.238281 19.632813-8.03125 12.226562-16.335938 24.871094-21.257812 39.1875-6.535157 19-6.570313 38.953125-6.601563 58.25l-.359375 222.496094c-.011719 6.582031-.023438 14.777343 3.917969 21.871093 4.191406 7.554688 11.8125 12.015625 19.417969 15.714844 31.980468 15.546875 68.320312 24.609375 105.085937 26.210937 3.96875.171876 7.945313.257813 11.925781.257813 31.066406 0 62.242188-5.253906 91.058594-15.359375 9.367188 15.867188 26.210938 28.328125 46.476562 34.292969 12.519532 3.6875 26.375 6.015625 39.992188 6.015625 23.984375 0 47.234375-7.226563 61.183594-27.003906 12.683594-17.988282 15.648437-42 18.265625-63.183594.691406-5.589844 1.339843-10.871094 2.144531-15.976563l.503906-3.1875c3-19.03125 6.105469-38.710937 6.125-58.761719v-.320312c-.011718-25.539062-1.601562-51.496094-3.136718-76.597656zm-125.566407-24.84375c.183594-.03125.367188-.058594.453125-.078125 21.625-3.558594 43.628906-5.324219 65.53125-3.917969 9.921875.636719 19.796875 1.921875 29.539063 3.917969 4.480469.914062 9.597656 1.761719 13.648437 4.183593-22.683594 9.808594-47.984375 12.082032-69.964844 12.964844-22.863281.921875-52.023437.839844-80.1875-7.074218 13.496094-4.285157 26.492188-7.546876 40.621094-9.933594zm-52.90625-203.121094c1.136719 7.328125 3.039063 14.347656 5.761719 21.332031 3.445312 8.816407 7.707031 17.324219 11.832031 25.550781 3.875 7.734376 7.882813 15.734376 11.09375 23.796876 4.46875 11.210937 7.566407 22.929687 9.8125 34.773437 1.78125 9.398437 3.019531 18.71875 3.992188 28.074219-10.160157 2.4375-20.109375 2.296875-28.875-.433594-10.035157-3.125-18.339844-9.734375-22.789063-18.132812-4.734375-8.933594-5.300781-19.933594-5.851562-30.574219-.226563-4.40625-.484375-9.398438-2.242188-14.242188-2.167968-5.980469-6.347656-10.464843-11.46875-12.304687-5.578125-2-11.285156-.632813-15.453125.363281l-.261719.0625c-5.980468 1.4375-11.625 2.785156-17.230468 2.609375-5.722656-.183594-10.636719-2.171875-13.480469-5.453125-2.59375-2.996094-3.984375-7.496094-4.132813-13.378906-.304687-12.082031 4.59375-24.414063 13.109376-32.988281.347656-.347657.609374-.746094.832031-1.160157 28.195312-3.542969 65.308593-8.164062 65.351562-7.894531zm-117.121093-17.554688c31.757812-3.25 63.515624-6.5 95.261718-9.738281 2.035156-.207031 4.074219-.507812 6.046875-.792969 5.085938-.742187 11.414063-1.664062 13.371094.089844.914063.824219 1.359375 2.875 1.253906 5.773438-.15625 4.234375-.113281 8.3125.125 12.277344l-161.640625 19.792968c.511719-8.039062-.410156-15.617187-2.835937-22.453125zm26.78125 449.023438-64.410157-55.78125c3.542969-34.191406 5.855469-68.503906 6.957031-102.851562 2.273438 8.992187 6.996094 17.574218 13.769532 24.511718 10.074218 10.316406 24.6875 17.089844 40.414062 18.824219.054688 4.535156.089844 9.074219.089844 13.609375.652344 19.578125 1.300781 39.160156 1.953125 58.738281.300781 9.128907.605469 18.253907.90625 27.382813.132813 3.867187 1.335937 10.582031.320313 15.566406zm-36.527344-141.109375c-9.683594-9.914063-14.238282-23.835937-11.878906-36.335937 1.492187-7.929688 5.667968-15.589844 12.078124-22.144532 7.941407-8.128906 18.367188-13.566406 29.550782-15.460937 1.277344 29.867187 2.777344 59.789062 3.355468 89.65625-12.976562-1.683594-24.890624-7.300781-33.105468-15.714844zm-6.953125-65.46875c-6.328125 6.472656-10.878907 13.910156-13.363281 21.761719.953124-68.382813-2.929688-136.828125-11.632813-204.679688 6.679687 9.230469 12.34375 19.394532 18.890625 28.746094 7.269531 10.382812 14.578125 20.773438 20.976562 31.726562 6.886719 11.789063 12.125 22.804688 15.5625 36.003907 4.027344 15.464843 4.574219 31.945312 5.105469 47.886719.21875 6.675781.476563 13.355468.746094 20.039062-13.734375 2.042969-26.574219 8.574219-36.285156 18.515625zm-74.707031-115.683594c3.191406-14.453125 12.597656-27.449219 20.617187-39.65625 4.285156-6.523437 8.71875-13.273437 12.613281-20.25 2.039063-3.660156 3.921875-7.304687 5.933594-10.925781 14.621094 110.996094 16.242188 223.648438 4.800781 335.019531-8.339843 5.425781-18.292969 9.242188-27.945312 12.9375-7.132813 2.734375-14.507813 5.558594-21.351563 9.058594-.683594-3.804687-.632812-7.8125-.625-11.382813 0-.046874 0-.09375 0-.140624.027344-17.925782.054688-35.855469.085938-53.78125.007812-5.828126.167968-11.554688.304687-17.28125 18.84375-2.191407 33.332031-10.605469 40.027344-23.378907 5.046875-9.636719 5.675781-21.753906 1.765625-34.109375-3.414062-10.789062-9.785156-20.40625-15.488281-28.578125-.933594-1.339843-1.996094-2.859375-2.101563-3.921875-.144531-1.476562 1.371094-3.578125 2.867188-5.4375 1.390625-1.71875 2.855468-3.464844 4.273437-5.152344 4.652344-5.546874 9.46875-11.285156 13.125-17.933593 5.847657-10.640625 7.257813-21.984375 3.867188-31.125-4.042969-10.898438-15.265625-18.824219-27.296875-19.269531-7.359375-.269532-14.816406 2.21875-20.945313 6.683593.855469-14.011719 2.492188-27.875 5.472657-41.375zm-6.121094 56.253907c.179687-.191407.355468-.382813.507812-.609376 4.695313-6.949218 12.8125-11.253906 20.710938-10.960937 7.96875.296875 15.664062 5.660156 18.292968 12.753906 2.378907 6.417969 1.191407 14.742188-3.257812 22.832031-3.179688 5.789063-7.472656 10.90625-12.019531 16.320313-1.449219 1.726563-2.945313 3.507813-4.394531 5.308594-1.820313 2.253906-5.601563 6.941406-5.035157 12.691406.359375 3.664063 2.378907 6.554687 3.851563 8.667969 5.523437 7.910156 11.164062 16.425781 14.152344 25.871094 3.058593 9.652343 2.660156 19.292968-1.089844 26.449218-4.898438 9.355469-16.328125 15.886719-30.988282 17.910156.027344-3.425781.011719-6.867187-.089843-10.34375-.53125-18.136718-.273438-36.289062-.246094-54.429687.039063-23.691406-1.042969-48.195313-.394531-72.460937zm94.9375 270.179687c-9.097656-1.238281-18.132813-2.945313-27.050782-5.125-17.238281-4.210937-34.054687-10.179687-50.019531-17.933594-4.429687-2.148437-9.546875-4.375-12.9375-8.074219.160157-.085937.320313-.167968.410157-.214843 6.367187-3.253907 13.171874-5.859375 20.378906-8.621094 9.328125-3.574219 18.921875-7.257813 27.5625-12.484375l63.417968 54.917969c-6.746093.78125-15.808593-1.65625-21.761718-2.464844zm35.515625-126.390625c-1.042969-31.453125-2.089844-62.914062-3.132813-94.386719 7.800782-2.628906 14.722656-9.136719 20.132813-19.011719 1.644531-3.003906 3.082031-6.09375 4.472656-9.078124 2.351563-5.046876 4.570313-9.8125 7.617187-13.96875 3.75-5.117188 10.652344-10.65625 17.75-9.425782 7.761719 1.351563 12.46875 10.621094 12.378907 18.4375-.105469 9.011719-4.5625 17.816406-9.515625 26.792969l-.347656.625c-5.171876 9.363281-10.523438 19.046875-11.429688 30.25-.996094 12.328125 3.632812 23.703125 8.105469 34.703125 4.464843 10.980469 8.683593 21.351562 7.082031 31.78125-1.316406 8.597656-7.085938 16.464844-14.695312 20.042969-7.738282 3.636719-17.441407 2.800781-24.140626-2.082031-2.902343-2.117188-5.378906-4.96875-8.003906-7.988282-1.953125-2.253906-3.976562-4.558594-6.273437-6.691406zm4.183593 128.746094c.046876-.300782.074219-.605469.0625-.921875-.828124-24.835938-1.648437-49.667969-2.476562-74.503907-.417969-12.679687-.839844-25.359374-1.261719-38.035156 2.34375 2.640625 4.84375 5.261719 7.878907 7.476563 5.691406 4.144531 12.667968 6.273437 19.707031 6.273437 4.972656 0 9.976562-1.0625 14.578125-3.226562 10.699218-5.027344 18.488281-15.59375 20.328125-27.574219 2.019531-13.160156-2.925781-25.3125-7.703125-37.0625-4.21875-10.375-8.207032-20.175781-7.402344-30.132813.734375-9.054687 5.554688-17.78125 10.214844-26.21875l.347656-.628906c5.597656-10.136718 10.632812-20.171875 10.761719-31.507812.140625-12.171875-7.550781-26.121094-20.664063-28.402344-11.601562-2.023438-21.824218 5.578125-27.53125 13.363281-3.628906 4.953125-6.164062 10.394531-8.613281 15.65625-1.386719 2.972657-2.691406 5.78125-4.179687 8.496094-2.53125 4.617187-6.445313 10.15625-11.71875 13.085937-.203126-6.042968-.402344-12.082031-.601563-18.128906-.546875-16.484375-1.113281-33.53125-5.421875-50.074218-6.902344-26.503907-22.726562-49.09375-38.023438-70.941407-10.164062-14.511719-20.640624-29.484375-28.304687-45.390625 12.222656-1.496094 24.445313-2.996094 36.667969-4.492187 9.054687-1.109375 18.117187-2.21875 27.171875-3.328125 1.53125-.1875 7.863281-.984375 16.59375-2.085938-6.507813 9.519532-9.980469 20.96875-9.6875 32.605469.207031 8.261719 2.417969 14.882813 6.570312 19.675781 4.667969 5.382813 12.21875 8.625 20.71875 8.898438 6.949219.21875 13.519531-1.351563 19.882813-2.878906l.261718-.0625c3.8125-.914063 7.179688-1.59375 9.742188-.675782 2.277344.820313 4.3125 3.175782 5.445312 6.304688 1.25 3.4375 1.457032 7.457031 1.65625 11.34375.578126 11.183594 1.234376 23.855468 7.003907 34.746094 5.671875 10.707031 16.117187 19.089843 28.652343 22.996093 5.59375 1.742188 11.554688 2.613281 17.710938 2.613281 4.933594 0 9.992188-.570312 15.082031-1.691406.546875 6.335938 1.019531 12.699219 1.484375 19.128906l.078125 1.03125c.746094 10.078126 1.492188 20.152344 2.230469 30.230469-.519531.089844-1.09375.191407-1.722656.304688-.242188.042969-.492188.089843-.75.132812-.054688.011719-.109375.019531-.164063.03125-.460937.082031-.941406.167969-1.441406.257813-.058594.011718-.121094.023437-.183594.035156-.246093.046875-.5.089844-.757812.140625-.132813.023437-.269531.046875-.40625.074219-.359375.0625-.71875.132812-1.089844.199218-.21875.042969-.4375.082032-.664063.125-.21875.039063-.441406.082032-.660156.125-.207031.039063-.417968.074219-.628906.113282-.214844.042968-.425781.082031-.644531.125-.394531.074218-.792969.148437-1.191407.226562-.1875.035156-.371093.066406-.558593.105469-.308594.058594-.617188.117187-.933594.179687-.15625.027344-.3125.058594-.472656.089844-.453125.085938-.910157.175782-1.371094.265625-.148437.027344-.296875.058594-.445313.085938-.359374.070312-.71875.140625-1.082031.214843-.15625.03125-.308593.058594-.460937.089844-.476563.09375-.957032.191406-1.4375.285156-.136719.027344-.273438.058594-.414063.085938-.386719.078125-.773437.15625-1.164062.234375-.152344.03125-.300781.0625-.453125.09375-.503906.101563-1.011719.207031-1.519532.3125-.0625.011719-.125.027344-.191406.039063-.460937.097656-.921875.195312-1.382812.292968-.132813.027344-.265625.054688-.398438.082032-.523437.113281-1.042968.222656-1.566406.335937-10.546875 2.277344-17.507812 4.035156-21.804688 5.96875-.125.054687-.246093.113281-.367187.167969-.074219.035156-.152344.070312-.222656.101562-1.140625.535156-2.148438 1.136719-2.972657 1.839844-.023437.019531-.046874.039062-.070312.058594-.121094.105468-.246094.214844-.359375.328125-.167969.160156-.324219.328125-.476563.5-.734374.863281-1.148437 1.796875-1.292968 2.84375 0 .015625-.003906.035156-.003906.054687-.035157.265625-.058594.542969-.058594.824219l-.042969 158.410156c-.003906 1.0625-.003906 2.140625 0 3.234375v.945313c.003906.796875.003906 1.589843.011719 2.402343.003906.429688.007812.867188.011718 1.304688.007813.703125.015626 1.40625.023438 2.117188.007812.488281.019531.980468.03125 1.472656.011719.667968.023438 1.339844.042969 2.015625.015625.523437.03125 1.050781.050781 1.578125.023438.652344.042969 1.304687.074219 1.960937.019531.550781.046875 1.097657.074219 1.652344.03125.640625.066406 1.285156.105468 1.933594.035156.566406.070313 1.132812.109375 1.699219.042969.640624.09375 1.277343.144531 1.917968.046876.578125.09375 1.15625.148438 1.738282.054688.632812.125 1.269531.191406 1.902343.0625.585938.121094 1.175781.191406 1.761719.074219.636719.160157 1.273438.246094 1.910156.078125.585938.152344 1.171875.238282 1.757813.097656.671875.214843 1.339843.324218 2.015625.160156.964844.332032 1.929687.519532 2.890625.144531.746093.285156 1.492187.445312 2.238281.128906.582031.273438 1.164062.410156 1.746094.148438.617187.289063 1.238281.449219 1.855468.152344.589844.324219 1.175782.488281 1.761719.171875.609375.339844 1.214844.523438 1.820313.179687.578125.371094 1.152344.5625 1.730468.199218.605469.402344 1.214844.617187 1.816407.199219.558593.414063 1.117187.625 1.671875.140625.355468.261719.71875.40625 1.074218-26.167969 9.03125-54.316406 13.898438-82.480469 14.332032zm251.621094-133.121094c-.019531 19.269531-2.925781 37.699219-6.003906 57.210938l-.503906 3.195312c-.828125 5.265625-1.488282 10.625-2.191406 16.300781-2.589844 20.996094-5.269532 42.707031-16.511719 58.648438-12.34375 17.5-42.515625 31.195312-90.179688 17.15625-18.292969-5.386719-33.34375-16.605469-41.277343-30.765625-.375-.675782-.816407-1.476563-1.226563-2.3125-8.335937-16.621094-8.324219-36.777344-8.3125-54.566406.003906-25.769532.011719-51.539063.019531-77.308594.003906-14.203125.007813-28.40625.011719-42.609375.003906-5.621094.003906-11.242188.007813-16.867188 0-3.105469-.835938-7.601562-.5625-11.5 23.613281 7.316407 47.890624 9.132813 69.097656 9.132813 6.503906 0 12.722656-.171875 18.542968-.40625 23.527344-.945313 50.78125-3.464844 75.472657-14.648438.84375 4.152344.25 8.886719.503906 13.039063 1.523437 24.953125 3.101563 50.757812 3.113281 75.988281zm0 0"/><path d="m383.84375 297.105469c-1.597656-1.933594-3.691406-2.699219-4.945312-3.152344-27.382813-9.984375-59.199219-13.09375-97.261719-9.507813-7.8125.734376-15.867188 1.742188-24.628907 3.078126-.601562.089843-1.207031.152343-1.804687.210937-3.109375.324219-7.371094.769531-10.089844 4.746094-2.117187 3.097656-2.503906 7.867187-2.847656 12.078125-.105469 1.292968-.203125 2.519531-.332031 3.304687-2.832032 17.257813-4.738282 34.523438-5.660156 51.316407-1.089844 19.75-.851563 39.34375.707031 58.234374 1.316406 15.96875 3.804687 32.65625 13.015625 46.535157 7.71875 11.621093 20.054687 20.695312 34.742187 25.546875 8.757813 2.894531 18.324219 4.347656 28.566407 4.347656 4.453124 0 9.035156-.277344 13.734374-.824219 8.039063-.945312 19.722657-3.085937 28.332032-10.785156 7.488281-6.703125 11.09375-15.957031 14.148437-24.863281 18.210938-53.164063 23.917969-106.660156 16.5-154.707032-.207031-1.347656-.554687-3.601562-2.175781-5.558593zm-101.269531-2.703125c33.613281-3.164063 62-.929688 86.535156 6.804687-10.949219 5.066407-23.917969 7.773438-38.675781 8.035157-15.402344.269531-30.683594-2.015626-47.628906-4.808594-9.105469-1.5-17.261719-3.132813-23.578126-7.132813 8.292969-1.25 15.941407-2.203125 23.347657-2.898437zm77.484375 159.726562c-2.621094 7.65625-5.660156 15.558594-11.355469 20.652344-4.941406 4.417969-12.195313 7.058594-22.828125 8.304688-14.046875 1.644531-26.828125.605468-37.996094-3.085938-12.570312-4.152344-23.066406-11.816406-29.550781-21.585938-7.960937-11.992187-10.175781-27.1875-11.382813-41.820312-1.519531-18.4375-1.75-37.570312-.6875-56.867188.90625-16.433593 2.769532-33.339843 5.542969-50.246093.195313-1.1875.3125-2.609375.433594-4.117188.019531-.207031.035156-.441406.058594-.691406 8.984375 6.328125 20.351562 8.21875 28.886719 9.625 16.464843 2.714844 31.429687 4.964844 46.722656 4.964844.902344 0 1.804687-.007813 2.710937-.023438 17.710938-.3125 33.214844-3.902343 46.164063-10.660156 6.171875 45.320313.417968 95.535156-16.71875 145.550781zm0 0"/></svg>