<?xml version="1.0" encoding="utf-8"?>
<!-- Generator: Adobe Illustrator 22.0.1, SVG Export Plug-In . SVG Version: 6.00 Build 0)  -->
<svg version="1.1" id="Capa_1" xmlns="http://www.w3.org/2000/svg" xmlns:xlink="http://www.w3.org/1999/xlink" x="0px" y="0px"
	 viewBox="0 0 441.5 441.5" style="enable-background:new 0 0 441.5 441.5;" xml:space="preserve">
<path d="M65.8,404.8c-23.1,0-41.8-18.9-40.3-42c1.3-20.6,18.5-37.1,39.5-37.1h310.6c31.1,0,57.3-24.6,57.8-55.8
	c0.6-31.8-25.1-57.9-56.8-57.9H65.8c-23.1,0-41.8-18.9-40.3-42C26.8,149.4,44,133,65,133h310.6c31.1,0,57.3-24.6,57.8-55.8
	c0.6-31.8-25.1-57.9-56.8-57.9H94.1c-4.9,0-8.8,3.9-8.8,8.8v0c0,4.7,3.8,8.5,8.5,8.5l281.8,0c23.1,0,41.8,18.9,40.3,42
	c-1.3,20.6-18.5,37.1-39.5,37.1l-310.6,0c-31.1,0-57.3,24.6-57.8,55.8c-0.6,31.8,25.1,57.9,56.8,57.9l310.7,0
	c23.1,0,41.8,18.9,40.3,42c-1.3,20.6-18.5,37.1-39.5,37.1H66c-31.1,0-57.3,24.6-57.8,55.8C7.6,396,33.3,422.1,65,422.1l276.9,0.1
	c4.7,0,8.6-3.8,8.6-8.6v0c0-4.9-4-8.8-8.8-8.8L65.8,404.8z"/>
<circle cx="70.9" cy="28" r="8.6"/>
<circle cx="47.8" cy="28" r="8.6"/>
<circle cx="25" cy="28" r="8.6"/>
<circle cx="410.3" cy="413.5" r="8.6"/>
<circle cx="387.1" cy="413.5" r="8.6"/>
<circle cx="364.4" cy="413.5" r="8.6"/>
</svg>
