<?xml version="1.0" encoding="utf-8"?>
<!-- Generator: Adobe Illustrator 22.0.1, SVG Export Plug-In . SVG Version: 6.00 Build 0)  -->
<svg version="1.1" id="Calque_1" xmlns="http://www.w3.org/2000/svg" xmlns:xlink="http://www.w3.org/1999/xlink" x="0px" y="0px"
	 viewBox="0 0 512 512" style="enable-background:new 0 0 512 512;" xml:space="preserve">
<style type="text/css">
	.st0{fill:#F4CD1E;}
	.st1{fill:#F6DB6D;}
	.st2{fill:#EC9130;}
	.st3{fill:#37A9BF;}
	.st4{fill:#52DDDC;}
	.st5{fill:#E3E3E3;}
	.st6{fill:#FFFFFF;}
	.st7{fill:#AA315E;}
	.st8{fill:#DF3F7C;}
</style>
<path class="st0" d="M381.4,56.2h28.2c9.4,0,17.1-7.6,17.1-17.1V22.1c0-9.4-7.6-17.1-17.1-17.1h-85.3c-7,0-13.4,3.7-16.9,9.7
	c-3.5,6-3.5,13.4,0,19.5c31.2,54.3,93.7,171.3,93.7,235.4c0,85.3-59.7,119.5-145.1,119.5s-145.1-34.1-145.1-119.5
	c0-64.1,62.5-181,93.7-235.4c3.5-6,3.5-13.4,0-19.5c-3.5-6-9.9-9.7-16.9-9.7h-85.3C93,5,85.3,12.6,85.3,22.1v17.1
	c0,9.4,7.6,17.1,17.1,17.1h28.2c-61,83.3-96.4,163.8-96.4,256c0,145.1,128,187.7,221.9,187.7s221.9-42.7,221.9-187.7
	C477.9,220,442.4,139.5,381.4,56.2z"/>
<path class="st1" d="M477.9,312.2c0,145.1-128,187.7-221.9,187.7V389c85.3,0,145.1-34.1,145.1-119.5c0-64.1-62.6-181.1-93.7-235.4
	c-3.5-6-3.5-13.5,0-19.5c3.5-6,10-9.7,16.9-9.7h85.3c9.4,0,17,7.7,17.1,17.1v17.1c0,9.4-7.7,17-17.1,17.1h-28.2
	C442.4,139.6,477.9,220,477.9,312.2z"/>
<path class="st2" d="M187.7,440.2c0,4.7-3.8,8.5-8.5,8.5c-4.7,0-8.5-3.8-8.5-8.5c0-4.7,3.8-8.5,8.5-8.5
	C183.9,431.7,187.7,435.5,187.7,440.2z"/>
<path class="st2" d="M128,406.1c0,4.7-3.8,8.5-8.5,8.5c-4.7,0-8.5-3.8-8.5-8.5c0-4.7,3.8-8.5,8.5-8.5
	C124.2,397.5,128,401.4,128,406.1z"/>
<path class="st2" d="M93.9,346.3c0,4.7-3.8,8.5-8.5,8.5c-4.7,0-8.5-3.8-8.5-8.5c0-4.7,3.8-8.5,8.5-8.5
	C90,337.8,93.9,341.6,93.9,346.3z"/>
<path class="st2" d="M85.3,278.1c0,4.7-3.8,8.5-8.5,8.5c-4.7,0-8.5-3.8-8.5-8.5c0-4.7,3.8-8.5,8.5-8.5
	C81.5,269.5,85.3,273.4,85.3,278.1z"/>
<path class="st2" d="M93.9,209.8c0,4.7-3.8,8.5-8.5,8.5c-4.7,0-8.5-3.8-8.5-8.5c0-4.7,3.8-8.5,8.5-8.5
	C90,201.3,93.9,205.1,93.9,209.8z"/>
<path class="st2" d="M119.5,141.5c0,4.7-3.8,8.5-8.5,8.5c-4.7,0-8.5-3.8-8.5-8.5c0-4.7,3.8-8.5,8.5-8.5
	C115.6,133,119.5,136.8,119.5,141.5z"/>
<path class="st1" d="M195.9,354.9c-1,0-1.9-0.2-2.8-0.5c-20.2-6.1-37.1-19.8-47.3-38.2c-1.5-2.7-1.4-6,0.2-8.7
	c1.6-2.6,4.6-4.2,7.7-4c3.1,0.2,5.9,2,7.2,4.8c8.2,14.5,21.8,25.3,37.8,30c3.9,1.4,6.3,5.4,5.6,9.5
	C203.7,351.9,200.1,354.9,195.9,354.9z"/>
<path class="st1" d="M145.1,278.1c-4.7,0-8.5-3.8-8.5-8.5c0.4-12.3,2.2-24.5,5.6-36.3c1.3-4.5,5.9-7.1,10.3-5.9s7.2,5.7,6.2,10.2
	c-3,10.4-4.7,21.2-5,32C153.6,274.2,149.8,278.1,145.1,278.1z"/>
<path class="st1" d="M452.3,472.4c-3.5,0-6.6-2.1-7.9-5.3c-1.3-3.2-0.5-6.9,1.9-9.3c11.8-11.5,22.1-24.6,30.4-38.9
	c2.5-3.8,7.5-5,11.4-2.7c3.9,2.3,5.4,7.2,3.3,11.3c-9.1,15.6-20.3,29.9-33.2,42.5C456.6,471.5,454.5,472.4,452.3,472.4z"/>
<g>
	<path class="st2" d="M341.3,440.2c0,4.7-3.8,8.5-8.5,8.5c-4.7,0-8.5-3.8-8.5-8.5c0-4.7,3.8-8.5,8.5-8.5
		C337.5,431.7,341.3,435.5,341.3,440.2z"/>
	<path class="st2" d="M264.5,448.7c0,4.7-3.8,8.5-8.5,8.5s-8.5-3.8-8.5-8.5c0-4.7,3.8-8.5,8.5-8.5S264.5,444,264.5,448.7z"/>
	<path class="st2" d="M401.1,406.1c0,4.7-3.8,8.5-8.5,8.5c-4.7,0-8.5-3.8-8.5-8.5c0-4.7,3.8-8.5,8.5-8.5
		C397.2,397.5,401.1,401.4,401.1,406.1z"/>
	<path class="st2" d="M435.2,346.3c0,4.7-3.8,8.5-8.5,8.5c-4.7,0-8.5-3.8-8.5-8.5c0-4.7,3.8-8.5,8.5-8.5
		C431.4,337.8,435.2,341.6,435.2,346.3z"/>
	<path class="st2" d="M443.7,278.1c0,4.7-3.8,8.5-8.5,8.5c-4.7,0-8.5-3.8-8.5-8.5c0-4.7,3.8-8.5,8.5-8.5
		C439.9,269.5,443.7,273.4,443.7,278.1z"/>
	<path class="st2" d="M435.2,209.8c0,4.7-3.8,8.5-8.5,8.5c-4.7,0-8.5-3.8-8.5-8.5c0-4.7,3.8-8.5,8.5-8.5
		C431.4,201.3,435.2,205.1,435.2,209.8z"/>
	<path class="st2" d="M409.6,141.5c0,4.7-3.8,8.5-8.5,8.5c-4.7,0-8.5-3.8-8.5-8.5c0-4.7,3.8-8.5,8.5-8.5
		C405.8,133,409.6,136.8,409.6,141.5z"/>
</g>
<path class="st1" d="M486.4,98.9c-4.7,0-8.5-3.8-8.5-8.5V56.2c0-4.7,3.8-8.5,8.5-8.5c4.7,0,8.5,3.8,8.5,8.5v34.1
	C494.9,95,491.1,98.9,486.4,98.9z"/>
<path class="st1" d="M503.5,81.8h-34.1c-4.7,0-8.5-3.8-8.5-8.5c0-4.7,3.8-8.5,8.5-8.5h34.1c4.7,0,8.5,3.8,8.5,8.5
	C512,78,508.2,81.8,503.5,81.8z"/>
<path class="st1" d="M25.6,508.5c-4.7,0-8.5-3.8-8.5-8.5v-34.1c0-4.7,3.8-8.5,8.5-8.5c4.7,0,8.5,3.8,8.5,8.5v34.1
	C34.1,504.6,30.3,508.5,25.6,508.5z"/>
<path class="st1" d="M42.7,491.4H8.5c-4.7,0-8.5-3.8-8.5-8.5s3.8-8.5,8.5-8.5h34.1c4.7,0,8.5,3.8,8.5,8.5S47.4,491.4,42.7,491.4z"/>
<g>
	<path class="st3" d="M357.8,144.8c5.7-9.8,9-21.3,9.1-33.4c0.3-37.1-29.5-67.7-66.4-68.2c-38-0.5-68.9,30.6-68.2,68.8
		c0.6,37,31,66.8,67.8,66.6c10.7-0.1,20.9-2.7,29.9-7.3l17.8,0c5.6,0,10.1-4.6,10.1-10.2L357.8,144.8z"/>
	<path class="st4" d="M293.3,43.5c-34.6,3.2-61.6,32.8-61,68.5c0.6,34.7,27.3,63.1,61,66.3L293.3,43.5L293.3,43.5z"/>
	<path class="st5" d="M364.1,130.3c1.8-6,2.8-12.4,2.8-18.9c0.1-6.9-0.9-13.6-2.8-20h-35.4l23.2-23.2c-2.9-3.5-6.1-6.8-9.6-9.7
		L319,81.8V46.1c-5.9-1.8-12.1-2.8-18.5-2.9c-7.1-0.1-13.9,0.9-20.4,2.9v35.7l-23.3-23.3c-3.5,2.9-6.7,6.1-9.6,9.7l23.2,23.2h-35.4
		c-1.9,6.5-2.9,13.4-2.8,20.6c0.1,6.4,1.1,12.5,2.8,18.3h35.4l-23.2,23.2c2.9,3.5,6.1,6.8,9.6,9.7l23.2-23.2v35.7
		c6.3,1.9,13,2.9,20,2.9c6.6,0,12.9-1.1,18.9-2.9v-35.7l31,31c4.5-1,7.8-5.1,7.8-9.9l0-1.5l-29.2-29.2L364.1,130.3L364.1,130.3z"/>
	<path class="st6" d="M294.5,178.3v-135c-4.9,0.4-9.7,1.3-14.3,2.7v35.7l-23.3-23.3c-3.5,2.9-6.7,6.1-9.6,9.7l23.2,23.2h-35.4
		c-1.9,6.5-2.9,13.4-2.8,20.6c0.1,6.4,1.1,12.5,2.8,18.3h35.4l-23.2,23.2c2.9,3.5,6.1,6.8,9.6,9.7l23.2-23.2v35.7
		C284.7,177.1,289.5,178,294.5,178.3z"/>
	<path class="st7" d="M366,99.9h-55.5V44.1c-3.3-0.5-6.6-0.9-10.1-0.9c-4-0.1-8,0.3-11.9,0.9v55.8h-55.5c-0.6,3.9-0.9,8-0.9,12.1
		c0.1,3.3,0.4,6.6,0.9,9.8h55.5v55.8c3.7,0.6,7.6,0.9,11.5,0.9c3.6,0,7.1-0.3,10.5-0.9v-55.8H366c0.6-3.4,0.9-6.9,0.9-10.5
		C367,107.5,366.7,103.6,366,99.9z"/>
	<path class="st8" d="M299.6,43.2c-3.7,0-7.4,0.3-11,0.9v55.8h-55.5c-0.6,3.9-0.9,8-0.9,12.1c0.1,3.3,0.4,6.6,0.9,9.8h55.5v55.8
		c3.6,0.6,7.2,0.9,11,0.9L299.6,43.2z"/>
</g>
</svg>
