<svg height="512pt" viewBox="-62 0 512 512" width="512pt" xmlns="http://www.w3.org/2000/svg"><path d="m164.113281 166.125c0 26.285156-3.015625 51.148438-8.390625 73.242188-4.117187 16.9375-18.949218 28.792968-35.929687 28.792968h-75.472657c-16.976562 0-31.820312-11.855468-35.929687-28.792968-5.371094-22.09375-8.390625-46.957032-8.390625-73.242188 0-91.753906 36.738281-166.125 82.058594-166.125 5.320312 0 10.515625 1.027344 15.558594 2.988281 37.878906 14.707031 66.496093 82.148438 66.496093 163.136719zm0 0" fill="#4b5055"/><path d="m143.765625 340.34375v46.355469c0 28.566406-19.679687 52.765625-46.148437 59.703125-4.96875 1.308594-10.1875 2.003906-15.558594 2.003906-33.941406 0-61.707032-27.769531-61.707032-61.707031v-46.355469c0-6.679688 5.464844-12.136719 12.144532-12.136719h99.121094c6.679687 0 12.148437 5.457031 12.148437 12.136719zm0 0" fill="#4b5055"/><path d="m388.492188 229.722656c0 26.28125-3.015626 51.144532-8.390626 73.238282-4.117187 16.9375-18.949218 28.796874-35.941406 28.796874h-75.457031c-16.980469 0-31.824219-11.859374-35.941406-28.796874-5.363281-22.09375-8.382813-46.957032-8.382813-73.238282 0-91.757812 36.738282-166.128906 82.058594-166.128906 5.320312 0 10.515625 1.027344 15.558594 2.976562 37.878906 14.71875 66.496094 82.160157 66.496094 163.152344zm0 0" fill="#4b5055"/><path d="m368.132812 403.9375v46.355469c0 28.566406-19.667968 52.765625-46.136718 59.707031-4.96875 1.304688-10.1875 2-15.558594 2-33.941406 0-61.707031-27.765625-61.707031-61.707031v-46.355469c0-6.679688 5.464843-12.132812 12.136719-12.132812h99.128906c6.679687 0 12.136718 5.453124 12.136718 12.132812zm0 0" fill="#4b5055"/><path d="m164.113281 166.125c0 26.285156-3.015625 51.148438-8.390625 73.242188-4.117187 16.9375-18.949218 28.792968-35.929687 28.792968h-44.351563c-16.980468 0-31.824218-11.855468-35.933594-28.792968-5.371093-22.09375-8.390624-46.957032-8.390624-73.242188 0-80.988281 28.617187-148.429688 66.5-163.136719 37.878906 14.707031 66.496093 82.148438 66.496093 163.136719zm0 0" fill="#5a5f64"/><path d="m143.765625 340.34375v46.355469c0 28.566406-19.679687 52.765625-46.148437 59.703125-26.472657-6.9375-46.148438-31.136719-46.148438-59.703125v-46.355469c0-6.679688 5.464844-12.136719 12.144531-12.136719h68.003907c6.679687 0 12.148437 5.457031 12.148437 12.136719zm0 0" fill="#5a5f64"/><path d="m388.492188 229.722656c0 26.28125-3.015626 51.144532-8.390626 73.238282-4.117187 16.9375-18.949218 28.796874-35.941406 28.796874h-44.339844c-16.980468 0-31.824218-11.859374-35.941406-28.796874-5.363281-22.09375-8.382812-46.957032-8.382812-73.238282 0-80.992187 28.617187-148.433594 66.5-163.152344 37.878906 14.71875 66.496094 82.160157 66.496094 163.152344zm0 0" fill="#5a5f64"/><path d="m368.132812 403.9375v46.355469c0 28.566406-19.667968 52.765625-46.136718 59.707031-26.472656-6.941406-46.148438-31.140625-46.148438-59.707031v-46.355469c0-6.679688 5.464844-12.132812 12.136719-12.132812h68.011719c6.679687 0 12.136718 5.453124 12.136718 12.132812zm0 0" fill="#5a5f64"/><path d="m151.511719 77.636719h-138.898438c1.785157-5.785157 3.753907-11.324219 5.890625-16.59375h127.105469c2.136719 5.269531 4.109375 10.808593 5.902344 16.59375zm0 0" fill="#7d8287"/><path d="m163.273438 142.382812h-162.433594c.394531-5.632812.921875-11.167968 1.597656-16.59375h159.238281c.675781 5.433594 1.203125 10.960938 1.597657 16.59375zm0 0" fill="#7d8287"/><path d="m163.234375 190.523438c-.40625 5.632812-.957031 11.171874-1.652344 16.597656h-159.050781c-.695312-5.425782-1.246094-10.964844-1.648438-16.597656zm0 0" fill="#7d8287"/><path d="m375.890625 141.234375h-138.898437c1.785156-5.789063 3.753906-11.328125 5.890624-16.597656h127.105469c2.136719 5.269531 4.109375 10.808593 5.902344 16.597656zm0 0" fill="#7d8287"/><path d="m387.652344 205.976562h-162.433594c.394531-5.628906.925781-11.167968 1.597656-16.59375h159.238282c.675781 5.425782 1.203124 10.964844 1.597656 16.59375zm0 0" fill="#7d8287"/><path d="m387.613281 254.117188c-.40625 5.632812-.957031 11.171874-1.648437 16.597656h-159.054688c-.695312-5.425782-1.246094-10.964844-1.648437-16.597656zm0 0" fill="#7d8287"/><g fill="#5a5f64"><path d="m18.503906 61.042969h31.117188c-2.136719 5.269531-4.105469 10.808593-5.902344 16.59375h-31.105469c1.785157-5.785157 3.753907-11.324219 5.890625-16.59375zm0 0"/><path d="m33.554688 125.789062c-.671876 5.433594-1.203126 10.960938-1.597657 16.59375h-31.117187c.394531-5.632812.921875-11.167968 1.597656-16.59375zm0 0"/><path d="m32 190.523438c.402344 5.632812.953125 11.171874 1.648438 16.597656h-31.117188c-.695312-5.425782-1.246094-10.964844-1.648438-16.597656zm0 0"/><path d="m242.882812 124.636719h31.117188c-2.136719 5.269531-4.105469 10.808593-5.902344 16.597656h-31.105468c1.785156-5.789063 3.753906-11.328125 5.890624-16.597656zm0 0"/><path d="m257.933594 189.382812c-.671875 5.425782-1.203125 10.964844-1.597656 16.59375h-31.117188c.394531-5.628906.925781-11.167968 1.597656-16.59375zm0 0"/><path d="m256.378906 254.117188c.402344 5.632812.953125 11.171874 1.648438 16.597656h-31.117188c-.695312-5.425782-1.246094-10.964844-1.648437-16.597656zm0 0"/></g></svg>