<?xml version="1.0" encoding="iso-8859-1"?>
<!-- Generator: Adobe Illustrator 19.0.0, SVG Export Plug-In . SVG Version: 6.00 Build 0)  -->
<svg version="1.1" id="Layer_1" xmlns="http://www.w3.org/2000/svg" xmlns:xlink="http://www.w3.org/1999/xlink" x="0px" y="0px"
	 viewBox="0 0 512 512" style="enable-background:new 0 0 512 512;" xml:space="preserve">
<path style="fill:#4795E2;" d="M300.138,291.31c-5.297,0-8.828-3.531-8.828-8.828v-8.828c0-5.297,3.531-8.828,8.828-8.828
	s8.828,3.531,8.828,8.828v8.828C308.966,287.779,305.434,291.31,300.138,291.31 M300.138,326.621c-5.297,0-8.828-3.531-8.828-8.828
	v-8.828c0-5.297,3.531-8.828,8.828-8.828s8.828,3.531,8.828,8.828v8.828C308.966,323.09,305.434,326.621,300.138,326.621
	 M300.138,353.103c-5.297,0-8.828-3.531-8.828-8.828s3.531-8.828,8.828-8.828l0,0c5.297,0,8.828,3.531,8.828,8.828
	S305.434,353.103,300.138,353.103"/>
<path style="fill:#FDC794;" d="M505.821,346.041c7.062-5.297,7.945-15.89,2.648-22.952c-11.476-15.007-20.303-19.421-58.262,0.883
	l-76.8,46.786c-23.835,12.359-84.745,8.828-111.228,8.828c0,0,62.676,4.414,37.959-32.662
	c-12.359-18.538-33.545-29.131-56.497-29.131h-34.428c-20.303,0-39.724-6.179-55.614-17.655
	c-37.959-29.131-109.462,26.483-109.462,26.483v158.897h123.586c17.655,0,35.31-1.766,52.966-4.414l114.759-17.655
	c3.531,0,7.945-0.883,11.476-0.883l0,0c9.71-0.883,17.655-6.179,24.717-12.359L505.821,346.041z"/>
<polygon style="fill:#2872C9;" points="0,512 44.138,512 44.138,300.138 0,300.138 "/>
<path style="fill:#F9A671;" d="M141.241,414.897c-5.297,0-8.828-3.531-8.828-8.828c0-22.069,16.772-35.31,44.138-35.31h85.628
	c5.297,0,8.828,3.531,8.828,8.828s-3.531,8.828-8.828,8.828h-85.628c-26.483,0-26.483,13.241-26.483,17.655
	C150.069,411.366,146.538,414.897,141.241,414.897z"/>
<g>
	<polygon style="fill:#D6E0EB;" points="406.069,52.966 512,52.966 512,0 406.069,0 	"/>
	<polygon style="fill:#D6E0EB;" points="335.448,17.655 406.069,17.655 406.069,0 335.448,0 	"/>
</g>
<polygon style="fill:#C1CAD1;" points="423.724,88.276 494.345,88.276 494.345,52.966 423.724,52.966 "/>
<polygon style="fill:#D6E0EB;" points="264.828,176.552 512,176.552 512,88.276 264.828,88.276 "/>
<polygon style="fill:#C1CAD1;" points="282.483,211.862 370.759,211.862 370.759,176.552 282.483,176.552 "/>
<polygon style="fill:#D6E0EB;" points="291.31,238.345 361.931,238.345 361.931,211.862 291.31,211.862 "/>
<g>
	<path style="fill:#4795E2;" d="M326.621,291.31c-5.297,0-8.828-3.531-8.828-8.828v-8.828c0-5.297,3.531-8.828,8.828-8.828
		s8.828,3.531,8.828,8.828v8.828C335.448,287.779,331.917,291.31,326.621,291.31 M326.621,326.621c-5.297,0-8.828-3.531-8.828-8.828
		v-8.828c0-5.297,3.531-8.828,8.828-8.828s8.828,3.531,8.828,8.828v8.828C335.448,323.09,331.917,326.621,326.621,326.621
		 M326.621,361.931c-5.297,0-8.828-3.531-8.828-8.828v-8.828c0-5.297,3.531-8.828,8.828-8.828s8.828,3.531,8.828,8.828v8.828
		C335.448,358.4,331.917,361.931,326.621,361.931"/>
	<path style="fill:#4795E2;" d="M353.103,291.31c-5.297,0-8.828-3.531-8.828-8.828v-8.828c0-5.297,3.531-8.828,8.828-8.828
		s8.828,3.531,8.828,8.828v8.828C361.931,287.779,358.4,291.31,353.103,291.31 M353.103,326.621c-5.297,0-8.828-3.531-8.828-8.828
		v-8.828c0-5.297,3.531-8.828,8.828-8.828s8.828,3.531,8.828,8.828v8.828C361.931,323.09,358.4,326.621,353.103,326.621
		 M353.103,361.931c-5.297,0-8.828-3.531-8.828-8.828v-8.828c0-5.297,3.531-8.828,8.828-8.828s8.828,3.531,8.828,8.828v8.828
		C361.931,358.4,358.4,361.931,353.103,361.931"/>
</g>
<g>
</g>
<g>
</g>
<g>
</g>
<g>
</g>
<g>
</g>
<g>
</g>
<g>
</g>
<g>
</g>
<g>
</g>
<g>
</g>
<g>
</g>
<g>
</g>
<g>
</g>
<g>
</g>
<g>
</g>
</svg>
