<svg height="512" viewBox="0 0 512 512" width="512" xmlns="http://www.w3.org/2000/svg"><g id="filled_outline" data-name="filled outline"><path d="m48 215.487 33.251 16.043a76.658 76.658 0 0 0 74.967-4.688l-.572 11.206a74.739 74.739 0 0 0 9.623 40.67l14.218 25.082 12.551-12.465a74.744 74.744 0 0 0 20.672-67.435l45.417 23.69-2.709-13.795a81.941 81.941 0 0 0 -34.718-52.231z" fill="#75a882"/><path d="m48 215.487 24.712-27.428a76.657 76.657 0 0 1 71.17-24.017l-4.768-10.157a74.735 74.735 0 0 1 -6.476-41.288l3.674-28.597 16.334 6.791a74.742 74.742 0 0 1 44.644 54.609l33.082-39.11 2.71 13.8a81.939 81.939 0 0 1 -12.382 61.48z" fill="#83bd93"/><path d="m248 352a7.922 7.922 0 0 1 -8-8 8 8 0 1 1 16 0 7.986 7.986 0 0 1 -.641 3.039 9.294 9.294 0 0 1 -1.679 2.641 7.952 7.952 0 0 1 -5.68 2.32z" fill="#bb4033"/><path d="m396.438 401.344a144.656 144.656 0 0 1 -51.095-59.816 47.213 47.213 0 0 0 5.751.355 48 48 0 0 0 34.015-14.149 8 8 0 0 0 -11.359-11.265 31.847 31.847 0 0 1 -30.305 8.461l-4.845-1.23c-.571-1.841-1.242-3.639-1.741-5.508l-17.132-64.258a8 8 0 0 0 -15.454 4.125l17.133 64.258a160.656 160.656 0 0 0 14.677 36.143l-7.669 23.006a8 8 0 1 0 15.172 5.062l3.543-10.631a160.627 160.627 0 0 0 40.433 38.756 8 8 0 0 0 8.876-13.312z" fill="#54795e"/><g fill="#5d8668"><path d="m384 219.484h-2.961a96.5 96.5 0 0 1 -18.006-1.9l4.623-15.263a8 8 0 0 0 -15.312-4.64l-4.735 15.63a96.468 96.468 0 0 1 -16.39-7.623l-11.219-6.733v-150.955a8 8 0 0 0 -16 0v200a62.974 62.974 0 0 1 -30.414 53.719l-5.7 3.422a8 8 0 1 0 8.234 13.718l5.7-3.422a79.046 79.046 0 0 0 38.18-67.437v-30.385l2.984 1.791a112.837 112.837 0 0 0 23.379 10.554l5.957 20.29a8 8 0 0 0 15.36-4.5l-3.394-11.559a112.689 112.689 0 0 0 16.753 1.293h2.961a8 8 0 0 0 0-16z"/><path d="m95.094 214.234a8 8 0 0 1 -1.532-15.851l128.883-25.258a214.714 214.714 0 0 0 84.946-35.531 8 8 0 1 1 9.218 13.078 230.97 230.97 0 0 1 -91.336 38.2l-3.164.562-125.468 24.652a8.086 8.086 0 0 1 -1.547.148z"/><path d="m186.078 220.82a8 8 0 0 1 -7.39-11.07l9.023-21.711-16.563-16.672a8 8 0 0 1 11.344-11.281l20.328 20.461a8.007 8.007 0 0 1 1.719 8.711l-11.07 26.633a8 8 0 0 1 -7.391 4.929z"/><path d="m280 168a7.971 7.971 0 0 1 -5.656-2.344l-16-16a8 8 0 0 1 11.312-11.312l16 16a8 8 0 0 1 -5.656 13.656z"/><path d="m360 128a87.019 87.019 0 0 1 -48.406-14.656l-4.032-2.688a8 8 0 1 1 8.876-13.312l4.031 2.687a71.087 71.087 0 0 0 39.531 11.969 8 8 0 0 1 0 16z"/></g><circle cx="192" cy="376" fill="#c64435" r="40"/><circle cx="192" cy="384" fill="#ab3b2e" r="8"/><circle cx="248" cy="336" fill="#d44939" r="40"/><circle cx="200" cy="448" fill="#d44939" r="40"/><circle cx="248" cy="392" fill="#de4c3b" r="40"/><rect fill="#8e7760" height="32" rx="16" width="464" x="24" y="24"/><circle cx="376" cy="448" fill="#c64435" r="40"/><circle cx="432" cy="400" fill="#de4c3b" r="40"/><circle cx="408" cy="304" fill="#d44939" r="40"/><circle cx="408" cy="304" fill="#c64435" r="8"/><circle cx="432" cy="408" fill="#c64435" r="8"/><circle cx="376" cy="456" fill="#ab3b2e" r="8"/><circle cx="248" cy="400" fill="#c64435" r="8"/><circle cx="248" cy="344" fill="#c64435" r="8"/><circle cx="200" cy="448" fill="#c64435" r="8"/><path d="m472 64a24 24 0 0 0 0-48h-432a24 24 0 0 0 0 48h264v75.845a212.213 212.213 0 0 1 -20.581 12.261l-13.763-13.762a8 8 0 0 0 -11.312 11.312l9.749 9.749a214.932 214.932 0 0 1 -32.26 10.8 89.283 89.283 0 0 0 5.1-51.658l-2.7-13.8a8 8 0 0 0 -13.961-3.625l-23.532 27.82a82.551 82.551 0 0 0 -45.021-45.542l-16.336-6.789a8.01 8.01 0 0 0 -11.008 6.375l-3.675 28.584a82.519 82.519 0 0 0 6.031 43.164c-24.2.118-47.632 9.836-63.968 27.977l-24.708 27.422a8 8 0 0 0 -1.016 9.3 7.916 7.916 0 0 0 3.425 3.175c.044.027 0 .056.059.083l33.25 16.046a85.219 85.219 0 0 0 69.789 1.7 82.616 82.616 0 0 0 10.743 42.234l14.218 25.078a7.987 7.987 0 0 0 5.868 3.977 7.52 7.52 0 0 0 1.093.078 8.019 8.019 0 0 0 5.633-2.32l12.563-12.469a82.6 82.6 0 0 0 24.437-59.18l32.305 16.852a8 8 0 0 0 11.555-8.633l-2.711-13.8a89.31 89.31 0 0 0 -24.618-46.245 231.672 231.672 0 0 0 65.352-27.139v89.13a62.834 62.834 0 0 1 -26.031 50.628 47.827 47.827 0 0 0 -77.369 30.184 47.821 47.821 0 0 0 -56.6 47.188 47.951 47.951 0 0 0 20.786 39.458 48.172 48.172 0 1 0 82.452 24.5c.256 0 .5.039.762.039a47.916 47.916 0 0 0 38.884-76.032 47.628 47.628 0 0 0 1.834-53.333 78.578 78.578 0 0 0 22.428-26.8l10.26 38.486a160.656 160.656 0 0 0 14.677 36.143l-7.669 23.006a8 8 0 1 0 15.172 5.062l3.543-10.631a160.408 160.408 0 0 0 22.41 24.587 47.977 47.977 0 1 0 54.461 47.515c0-.247-.051-.485-.055-.731a47.978 47.978 0 1 0 -39.3-54.763 144.593 144.593 0 0 1 -39.28-50.926 46.944 46.944 0 0 0 27.534-4.947 47.735 47.735 0 1 0 -8.893-13.494 30.916 30.916 0 0 1 -20.475 1.838l-4.931-1.277c-.57-1.84-1.241-3.638-1.74-5.5l-11.929-44.75a146.076 146.076 0 0 1 -4.931-37.638v-18.2l2.984 1.791a112.837 112.837 0 0 0 23.379 10.554l5.957 20.29a8 8 0 0 0 15.36-4.5l-3.394-11.559a112.689 112.689 0 0 0 16.753 1.293h2.961a8 8 0 0 0 0-16h-2.961a96.5 96.5 0 0 1 -18.006-1.9l4.623-15.263a8 8 0 0 0 -15.312-4.64l-4.735 15.63a96.54 96.54 0 0 1 -16.39-7.622l-11.219-6.731v-80.725a86.931 86.931 0 0 0 40 9.77 8 8 0 0 0 0-16 71.087 71.087 0 0 1 -39.531-11.969l-.469-.312v-35.719zm-342.164 106.727a67.614 67.614 0 0 1 12.564 1.173 8 8 0 0 0 8.727-11.257l-4.766-10.164a66.531 66.531 0 0 1 -5.781-36.868l2.336-18.2 6.664 2.774a66.571 66.571 0 0 1 39.86 48.758 8 8 0 0 0 13.96 3.624l22.29-26.351a73.259 73.259 0 0 1 -9.876 50.156l-16.007 3.145-17.313-17.426a8 8 0 0 0 -11.344 11.281l9.787 9.852-48.292 9.486-62.626 12.3 8.639-9.592a69.114 69.114 0 0 1 51.178-22.691zm117.18 62.039-30.6-15.961a8 8 0 0 0 -11.555 8.633 66.642 66.642 0 0 1 -18.453 60.218l-5.125 5.086-9.054-15.969a66.59 66.59 0 0 1 -8.586-36.32l.57-11.2a8 8 0 0 0 -12.336-7.125 69.1 69.1 0 0 1 -67.148 4.2l-11.641-5.617 3.481-.684 20.058-3.94h.016l46.5-9.135 40.878-8.029-5.331 12.828a8 8 0 0 0 14.781 6.141l9.426-22.677 16-3.143a73.367 73.367 0 0 1 28.119 42.694zm.984 71.234a31.944 31.944 0 0 1 27.323 48.585 47.7 47.7 0 0 0 -19.465-7.884c.022-.243.142-.452.142-.7a8 8 0 0 0 -16 0c0 .249.12.458.142.7a47.686 47.686 0 0 0 -19.406 7.841 32.657 32.657 0 0 1 -4.58-14.269 15.321 15.321 0 0 1 -.156-2.273 32.032 32.032 0 0 1 32-32zm-56 40a31.527 31.527 0 0 1 9.168 1.5 47.649 47.649 0 0 0 7.932 18.5 47.792 47.792 0 0 0 -6.922 42.294 32.6 32.6 0 0 1 -20.478.062 32.033 32.033 0 0 1 10.3-62.356zm40 104a32 32 0 1 1 -51.241-25.463 48.727 48.727 0 0 0 11.241 1.463 47.7 47.7 0 0 0 17.53-3.415 48.206 48.206 0 0 0 20.016 15.715 31.584 31.584 0 0 1 2.454 11.7zm16-24a32 32 0 1 1 32-32 32.032 32.032 0 0 1 -32 32zm160 24a32 32 0 1 1 -32-32 31.584 31.584 0 0 1 11.7 2.454 48.241 48.241 0 0 0 19.478 22.552 33.284 33.284 0 0 1 .822 6.994zm24-80a32 32 0 1 1 -32 32 32.032 32.032 0 0 1 32-32zm-24-96a32 32 0 1 1 -32 32 32.032 32.032 0 0 1 32-32zm-368-224a8 8 0 0 1 0-16h432a8 8 0 0 1 0 16z"/><circle cx="408" cy="304" r="8"/><circle cx="432" cy="408" r="8"/><circle cx="376" cy="456" r="8"/><circle cx="248" cy="400" r="8"/><circle cx="200" cy="448" r="8"/><circle cx="192" cy="384" r="8"/></g></svg>