<?xml version="1.0" encoding="iso-8859-1"?>
<!-- Generator: Adobe Illustrator 19.0.0, SVG Export Plug-In . SVG Version: 6.00 Build 0)  -->
<svg version="1.1" id="Capa_1" xmlns="http://www.w3.org/2000/svg" xmlns:xlink="http://www.w3.org/1999/xlink" x="0px" y="0px"
	 viewBox="0 0 512 512" style="enable-background:new 0 0 512 512;" xml:space="preserve">
<g>
	<path style="fill:#B0D3F0;" d="M469.154,227.669l-10.761,58.197l-14.66,42.667H281.6l-14.686-42.667l-10.761-58.197
		c-0.461-2.515,0.231-5.104,1.884-7.054c1.653-1.95,4.093-3.057,6.65-3.015h195.934c2.556-0.042,4.997,1.065,6.65,3.015
		C468.923,222.566,469.615,225.155,469.154,227.669"/>
	<polyline style="fill:#59474E;" points="458.411,285.867 418.987,499.2 306.347,499.2 266.923,285.867 458.411,285.867 	"/>
	<path style="fill:#7A6C71;" d="M305.007,285.867h-17.34l28.211,155.128c0.738,4.054,4.267,7.002,8.388,7.006l1.536-0.137
		c4.62-0.863,7.673-5.301,6.827-9.924L305.007,285.867"/>
	<path style="fill:#CDE7F7;" d="M290.133,243.2c-0.509-0.001-1.018,0.045-1.519,0.137c-4.62,0.863-7.673,5.301-6.827,9.924
		l5.879,32.606h17.34l-6.485-35.661C297.784,246.151,294.254,243.204,290.133,243.2"/>
	<path style="fill:#59474E;" d="M187.733,118.357c-11.349-23.808-11.349-71.424-11.349-71.424l2.816-17.067H128l2.816,17.067
		c0,0,0,47.616-11.349,71.424c0,0-34.133,52.139-34.133,87.808v94.805c0,0,0.085,0.683,0.256,1.963
		c1.451,9.813,7.936,54.955,10.24,89.003c0.92,13.479-0.319,27.018-3.669,40.107c-3.888,14.149-6.178,28.69-6.827,43.349V499.2
		h136.533v-23.808c-0.649-14.659-2.939-29.2-6.827-43.349c-3.35-13.088-4.589-26.628-3.669-40.107
		c2.304-34.048,8.789-79.189,10.24-89.003c0.171-1.28,0.256-1.963,0.256-1.963v-94.805
		C221.867,170.496,187.733,118.357,187.733,118.357z"/>
	<g>
		<path style="fill:#E64C3C;" d="M221.867,209.067v91.904c0,0-0.085,0.683-0.256,1.963H85.589c-0.171-1.28-0.256-1.963-0.256-1.963
			v-91.904H221.867z"/>
		<path style="fill:#E64C3C;" d="M136.533,4.267h34.133c9.426,0,17.067,7.641,17.067,17.067V38.4c0,4.713-3.82,8.533-8.533,8.533
			H128c-4.713,0-8.533-3.821-8.533-8.533V21.333C119.467,11.908,127.108,4.267,136.533,4.267z"/>
	</g>
	<g>
		<path style="fill:#804537;" d="M452.267,490.667H8.533C3.821,490.667,0,494.487,0,499.2c0,4.713,3.821,8.533,8.533,8.533h443.733
			c4.713,0,8.533-3.821,8.533-8.533C460.8,494.487,456.98,490.667,452.267,490.667z"/>
		<path style="fill:#804537;" d="M503.467,490.667H486.4c-4.713,0-8.533,3.821-8.533,8.533c0,4.713,3.82,8.533,8.533,8.533h17.067
			c4.713,0,8.533-3.821,8.533-8.533C512,494.487,508.18,490.667,503.467,490.667z"/>
	</g>
</g>
<g>
</g>
<g>
</g>
<g>
</g>
<g>
</g>
<g>
</g>
<g>
</g>
<g>
</g>
<g>
</g>
<g>
</g>
<g>
</g>
<g>
</g>
<g>
</g>
<g>
</g>
<g>
</g>
<g>
</g>
</svg>
