<?xml version="1.0" encoding="utf-8"?>
<!-- Generator: Adobe Illustrator 22.0.1, SVG Export Plug-In . SVG Version: 6.00 Build 0)  -->
<svg version="1.1" id="Capa_1" xmlns="http://www.w3.org/2000/svg" xmlns:xlink="http://www.w3.org/1999/xlink" x="0px" y="0px"
	 viewBox="0 0 512 512" style="enable-background:new 0 0 512 512;" xml:space="preserve">
<style type="text/css">
	.st0{fill:#4E901E;}
	.st1{fill:#5EAC24;}
	.st2{fill:#91DC5A;}
	.st3{fill:#47821C;}
	.st4{fill:#B6E892;}
	.st5{fill:#6DC82A;}
	.st6{font-family:'MyriadPro-Regular';}
	.st7{font-size:120px;}
	.st8{font-size:72px;}
	.st9{fill:none;stroke:#000000;stroke-width:8;stroke-miterlimit:10;}
</style>
<g>
	<path class="st0" d="M196.3,22.8c7.5,2.8,14.1,7,19.5,12.2c16.5,15.7,23.1,40.3,14.6,62.9l-64.2,171.3
		c-11.3,30-45.1,45.4-75.1,34.1c-7.2-2.7-13.6-6.7-18.9-11.7c-2.5-2.3-4.8-4.8-6.9-7.5c-2.7-3.5-4.9-7.3-6.7-11.3
		c0-0.1-0.1-0.1-0.1-0.2c-6.1-13.6-7.1-29.4-1.5-44.4l64.2-171.3C132.5,26.9,166.2,11.5,196.3,22.8z"/>
	<path class="st1" d="M196.3,22.8c7.5,2.8,14.1,7,19.5,12.2c6.1,13.6,7.1,29.5,1.5,44.4l-64.2,171.3c-11.3,30-45.1,45.4-75.1,34.1
		c-7.2-2.7-13.6-6.7-18.9-11.7c-0.2-0.2-0.4-0.4-0.6-0.6c-6.1-13.6-7.1-29.4-1.5-44.4l64.2-171.3C132.5,26.9,166.2,11.5,196.3,22.8z
		"/>
	<circle class="st2" cx="175.9" cy="77" r="58"/>
	<g>
		<path class="st3" d="M94.9,218.1c2.3,0.9,3.5,3.5,2.7,5.8l-25.4,67.7c-2.5-2.3-4.8-4.8-6.9-7.5l23.8-63.4
			C89.9,218.4,92.6,217.2,94.9,218.1z"/>
		<path class="st3" d="M103.9,206.9l16.4-43.6c0.9-2.3-0.3-5-2.7-5.8c-2.3-0.9-5,0.3-5.8,2.7l-16.4,43.6c-0.9,2.3,0.3,5,2.7,5.8
			S103.1,209.3,103.9,206.9z"/>
		<path class="st3" d="M125.3,239.1l-8.1,21.5c-0.9,2.3,0.3,5,2.7,5.8c2.3,0.9,5-0.3,5.8-2.7l8.1-21.5c0.9-2.3-0.3-5-2.7-5.8
			C128.8,235.5,126.2,236.7,125.3,239.1z"/>
		<path class="st3" d="M158.7,149.9l-27,72.1c-0.9,2.3,0.3,5,2.7,5.8c2.3,0.9,5-0.3,5.8-2.7l27-72.1c0.9-2.3-0.3-5-2.7-5.8
			C162.2,146.4,159.6,147.6,158.7,149.9z"/>
	</g>
	<circle class="st4" cx="176" cy="77.5" r="48.7"/>
	<g>
		<ellipse transform="matrix(0.351 -0.9364 0.9364 0.351 35.7407 183.5786)" class="st5" cx="150.3" cy="66" rx="6.4" ry="6.4"/>
		<circle class="st5" cx="162.6" cy="93.6" r="6.4"/>
		<ellipse transform="matrix(0.351 -0.9364 0.9364 0.351 43.2507 247.0885)" class="st5" cx="199.9" cy="92.3" rx="6.4" ry="6.4"/>
		<ellipse transform="matrix(0.351 -0.9364 0.9364 0.351 78.3911 208.8863)" class="st5" cx="189.9" cy="47.9" rx="6.4" ry="6.4"/>
	</g>
</g>
<text transform="matrix(1 0 0 1 242.1304 236.1039)"><tspan x="0" y="0" class="st6 st7">-</tspan><tspan x="36.8" y="0" class="st6 st8"> </tspan><tspan x="52.1" y="0" class="st6 st7">bre</tspan></text>
<line class="st9" x1="50" y1="339.2" x2="462" y2="339.2"/>
<text transform="matrix(1 0 0 1 225.2206 454.7243)" class="st6 st7">2</text>
</svg>
