<svg height="480pt" viewBox="0 -15 480 480" width="480pt" xmlns="http://www.w3.org/2000/svg"><path d="m384.960938 133.164062h-.082032c-38.875-8.246093-77.082031 16.570313-85.359375 55.441407-3.199219 20.339843-4.246093 40.960937-3.121093 61.519531.082031.121094.082031.28125 0 .402344 1.921874 51.277344 12.722656 111.917968 38.640624 117.359375 30.960938 6.640625 74.160157-67.359375 94.640626-117.359375 4.464843-10.347656 8.050781-21.054688 10.71875-32 8.246093-38.878906-16.566407-77.085938-55.4375-85.363282zm0 0" fill="#ff6243"/><path d="m384.878906 133.085938c-2.320312-1.039063-39.519531-18.320313-50.078125-50.960938-10.960937-33.519531 10.640625-70.71875 10.640625-70.71875 12.9375 6.183594 24.625 14.699219 34.480469 25.121094-6.253906 8.070312-10.675781 17.40625-12.960937 27.359375-7.121094 33.519531 16.398437 67.117187 17.917968 69.199219zm0 0" fill="#9cdd05"/><path d="m451.519531 107.003906c-23.679687 26.242188-66.558593 26.160156-66.558593 26.160156l.078124-.078124c2.242188-1.28125 37.359376-22.398438 44.480469-55.921876 2-10.003906 1.78125-20.328124-.640625-30.238281 13.261719-5.5 27.414063-8.539062 41.761719-8.960937 0 0 4.558594 42.800781-19.121094 69.039062zm0 0" fill="#9cdd05"/><path d="m384.878906 133.085938c-1.519531-2.082032-25.039062-35.679688-17.917968-69.199219 2.285156-9.953125 6.707031-19.289063 12.960937-27.359375 8.675781-11.421875 19.421875-21.109375 31.679687-28.5625 8.105469 11.8125 13.964844 25.019531 17.277344 38.960937 2.421875 9.910157 2.640625 20.234375.640625 30.238281-7.121093 33.523438-42.238281 54.640626-44.480469 55.921876l-.078124.078124h-.082032zm0 0" fill="#4e901e"/><path d="m233.359375 51.886719 22.640625 22.640625c-12.515625 12.476562-32.765625 12.476562-45.28125 0l-22.640625-22.640625c12.515625-12.480469 32.769531-12.480469 45.28125 0zm0 0" fill="#4e901e"/><path d="m208 162.527344c-5.902344-.003906-11.773438.832031-17.441406 2.476562-6.902344-31.984375-36.820313-53.613281-69.355469-50.136718-32.539063 3.476562-57.214844 30.9375-57.203125 63.660156.023438 2.699218.210938 5.398437.558594 8.078125-.160156 0-.398438-.078125-.558594-.078125-22.089844 0-40 17.90625-40 40-.035156 8.660156 2.777344 17.089844 8 24h235.359375c3.058594-7.632813 4.632813-15.78125 4.640625-24 0-35.347656-28.652344-64-64-64zm0 0" fill="#c2fb3b"/><path d="m248.078125 114.527344c8 0 15.441406-4.722656 23.921875-4.722656 35.347656 0 64 28.65625 64 64 0 30.082031-20.71875 72.640624-48.640625 84.640624-4.828125 2.179688-10.0625 3.324219-15.359375 3.359376-8.480469 0-16-4.71875-24-4.71875s-15.519531 4.71875-24 4.71875c-15.429688-1.160157-29.550781-9.097657-38.558594-21.679688-14.476562-17.742188-23.285156-39.425781-25.28125-62.238281-.082031-1.359375-.160156-2.722657-.160156-4.082031 0-35.34375 28.652344-64 64-64 8.480469 0 16 4.722656 24 4.722656zm0 0" fill="#d80027"/><path d="m8 250.527344c.019531 22.304687 4.652344 44.367187 13.601562 64.796875 32.078126 74.160156 117.757813 127.203125 218.398438 127.203125 128.160156 0 232-86 232-192zm0 0" fill="#b39a7c"/><path d="m472 242.527344h-30.609375c2.785156-7.277344 5.070313-14.734375 6.839844-22.320313 6.753906-32.09375-6.746094-65.0625-34.070313-83.203125 16.507813-3.859375 31.546875-12.410156 43.304688-24.621094 25.742187-28.554687 21.296875-73.3125 21.085937-75.203124-.433593-4.054688-3.855469-7.132813-7.933593-7.140626-12.367188.238282-24.625 2.375-36.34375 6.335938-3.753907-11.78125-9.230469-22.941406-16.257813-33.113281-2.402344-3.2695315-6.871094-4.222657-10.398437-2.214844-10.5625 6.4375-20.113282 14.402344-28.335938 23.640625-9.136719-8.332031-19.457031-15.265625-30.625-20.578125-3.730469-1.671875-8.121094-.242187-10.152344 3.304687-.960937 1.648438-23.199218 40.71875-11.3125 77.253907 5.757813 15.933593 16.011719 29.851562 29.511719 40.082031-8.230469 1.371094-16.191406 4.039062-23.589844 7.894531-13.09375-21.179687-36.210937-34.085937-61.113281-34.117187-4.992188.179687-9.929688 1.101562-14.648438 2.734375l-.34375.097656c4.640626-29.113281 24.082032-34.832031 25.015626-35.089844l-2.023438-7.742187-1.9375-7.761719c-8.085938 2.542969-15.347656 7.1875-21.046875 13.464844l-17.984375-17.984375c-15.632812-15.59375-40.933594-15.59375-56.566406 0-3.125 3.125-3.125 8.1875 0 11.3125l22.625 22.621094c9.828125 10.03125 24.289062 14.003906 37.863281 10.402343-.964844 3.710938-1.675781 7.480469-2.121094 11.289063-.734375-.210938-1.433593-.378906-2.183593-.601563-4.71875-1.636719-9.65625-2.5625-14.648438-2.742187-19.871094.003906-38.847656 8.25-52.40625 22.773437-21.75-16.621093-51.050781-19.457031-75.582031-7.3125s-40.042969 37.164063-40.011719 64.539063v.664062c-14.003906 2.292969-26.261719 10.703125-33.441406 22.945313-7.183594 12.242187-8.542969 27.042969-3.710938 40.390625h-10.847656c-4.417969 0-8 3.578125-8 8 0 110.277344 107.664062 200 240 200s240-89.722656 240-200c0-4.421875-3.582031-8-8-8zm-255.601562-173.65625-16-16c9.183593-4.375 20.125-2.496094 27.320312 4.6875l16 16c-9.179688 4.386718-20.125 2.507812-27.320312-4.6875zm229.175781 32.796875c-8.761719 9.066406-19.820313 15.578125-32 18.839843 11.699219-11.347656 19.957031-25.765624 23.824219-41.597656 1.773437-8.816406 1.953124-17.875.53125-26.753906 8.109374-2.808594 16.511718-4.6875 25.046874-5.597656.007813 12.550781-2.03125 38.03125-17.375 55.070312zm-36.382813-82.558594c5.421875 9.214844 9.429688 19.191406 11.878906 29.601563 2.171876 8.773437 2.394532 17.917968.65625 26.789062-4.796874 22.632812-24.285156 39.203125-34.398437 46.472656-6.28125-10.742187-17.351563-33.800781-12.535156-56.445312 2.019531-8.8125 5.941406-17.074219 11.496093-24.210938v-.054687c6.484376-8.488281 14.203126-15.953125 22.902344-22.152344zm-66.792968 60.578125c-7.078126-21.707031 1.417968-45.882812 6.5625-57.433594 7.421874 4.257813 14.328124 9.359375 20.582031 15.199219-4.929688 7.574219-8.453125 15.976563-10.398438 24.800781-2.902343 16.027344-1.238281 32.550782 4.800781 47.679688-9.78125-7.953125-17.226562-18.40625-21.546874-30.246094zm40.90625 61.292969c25.507812 5.421875 45.175781 25.777343 49.71875 51.457031l-26.734376-5.6875c-2.078124-.441406-4.246093-.039062-6.023437 1.121094-1.78125 1.15625-3.027344 2.976562-3.464844 5.054687-.917969 4.320313 1.839844 8.566407 6.160157 9.488281l30.757812 6.535157c-.214844 2.667969-.589844 5.316406-1.125 7.9375-2.132812 8.742187-4.917969 17.3125-8.328125 25.640625h-108.027344c16.890625-20.3125 26.644531-45.609375 27.761719-72-.007812-8.003906-1.359375-15.945313-4-23.496094 13.253906-7.09375 28.597656-9.238281 43.289062-6.050781zm-159.304688-26.453125c3.441406.214844 6.832031.914062 10.078125 2.070312 4.488281 1.550782 9.179687 2.4375 13.921875 2.625 4.742188-.1875 9.433594-1.074218 13.921875-2.625 3.246094-1.15625 6.636719-1.855468 10.078125-2.070312 30.910156.039062 55.960938 25.085937 56 56-1.300781 27.753906-13.898438 53.769531-34.871094 72h-90.226562c-20.949219-18.25-33.554688-44.25-34.902344-72 .039062-30.914063 25.089844-55.960938 56-56zm-192 112c0-17.53125 14.101562-31.800782 31.632812-32 .328126 0 .6875.054687.925782.054687 2.296875 0 4.484375-.988281 6.003906-2.710937 1.519531-1.726563 2.222656-4.019532 1.933594-6.296875-.316406-2.335938-.480469-4.691407-.496094-7.046875-.019531-21.3125 12.070312-40.785156 31.179688-50.222656 19.113281-9.433594 41.921874-7.1875 58.828124 5.789062-6.546874 11.023438-10.003906 23.609375-10.007812 36.433594 1.152344 26.386718 10.902344 51.671875 27.769531 72h-43.769531v-48c0-13.792969-8.824219-26.035156-21.902344-30.402344-2.390625-.722656-4.980468-.265625-6.976562 1.234375s-3.15625 3.863281-3.121094 6.359375c-.109375 3.355469 1.914062 6.414062 5.046875 7.621094 6.539063 2.175781 10.953125 8.292968 10.953125 15.1875v48h-83.625c-2.847656-4.855469-4.355469-10.375-4.375-16zm208 208c-92.070312 0-171.289062-45.898438-205.6875-111.273438l85.757812-.726562-.140624-16-92.945313.796875c-6.222656-15.570313-9.863281-32.054688-10.777344-48.796875h447.585938c-5.121094 97.757812-103.546875 176-223.792969 176zm0 0"/><path d="m365.484375 186.269531.003906-.007812c.917969-4.324219 5.167969-7.082031 9.488281-6.160157 4.320313.917969 7.082032 5.164063 6.160157 9.488282v.007812c-.917969 4.320313-5.167969 7.078125-9.488281 6.160156-4.324219-.917968-7.082032-5.167968-6.164063-9.488281zm0 0"/><path d="m136 306.527344h24v16h-24zm0 0"/></svg>