<?xml version="1.0" encoding="iso-8859-1"?>
<!-- Generator: Adobe Illustrator 18.0.0, SVG Export Plug-In . SVG Version: 6.00 Build 0)  -->
<!DOCTYPE svg PUBLIC "-//W3C//DTD SVG 1.1//EN" "http://www.w3.org/Graphics/SVG/1.1/DTD/svg11.dtd">
<svg version="1.1" id="Capa_1" xmlns="http://www.w3.org/2000/svg" xmlns:xlink="http://www.w3.org/1999/xlink" x="0px" y="0px"
	 viewBox="0 0 487.924 487.924" style="enable-background:new 0 0 487.924 487.924;" xml:space="preserve">
<g>
	<path d="M347.607,98.017c0.801,0,1.609-0.019,2.418-0.059c26.99-1.314,47.878-24.342,46.564-51.331
		c-1.311-26.948-24.111-47.888-51.328-46.568c-26.991,1.314-47.881,24.342-46.568,51.332
		C299.966,77.537,321.452,98.017,347.607,98.017z M345.674,8.549c0.671-0.033,1.34-0.049,2.004-0.049
		c21.614,0,39.369,16.929,40.42,38.54c1.086,22.309-16.179,41.342-38.487,42.428c-22.494,1.117-41.343-16.215-42.428-38.49
		C306.098,28.668,323.365,9.635,345.674,8.549z"/>
	<path d="M407.229,272.409l-6.164-126.646c-1.294-26.577-23.975-47.125-50.547-45.856c-26.579,1.295-47.15,23.97-45.858,50.548
		l0.001,0.023l-66.527,45.262c-1.131,0.77-2.18,1.625-3.152,2.549l-18.61-10.162l-4.353-32.715
		c-0.309-2.326-2.447-3.962-4.773-3.652c-2.327,0.309-3.962,2.446-3.652,4.773l3.532,26.545l-23.457-12.81
		c-2.059-1.121-4.642-0.365-5.767,1.693c-1.125,2.061-0.367,4.643,1.693,5.768l28.921,15.792l3.988,29.971
		c-5.348,4.588-6.488,12.592-2.404,18.521c2.608,3.787,6.913,6.049,11.516,6.049c2.836,0,5.573-0.852,7.916-2.466
		c3.848-2.651,5.94-6.902,6.025-11.252c4.458,3.997,10.28,6.275,16.415,6.275c4.935,0,9.708-1.473,13.801-4.258l41.688-28.362
		l3.364,69.101c0.651,13.386,6.828,25.821,17.021,34.457l0.001,143.938c0,17.882,14.549,32.43,32.432,32.43
		c17.883,0,32.432-14.548,32.432-32.43V309.289C402.624,299.621,407.904,286.295,407.229,272.409z M229.906,205.203
		c-0.96,1.959-1.669,4.055-2.087,6.256c-0.655,3.446-0.566,6.917,0.217,10.231c-1.961-1.018-4.163-1.574-6.439-1.574
		c-0.323,0-0.644,0.015-0.963,0.036l-2.872-21.581L229.906,205.203z M224.71,238.595c-0.918,0.633-1.988,0.967-3.095,0.967
		c-1.806,0-3.494-0.886-4.516-2.37c-1.711-2.484-1.082-5.898,1.402-7.61c0.918-0.632,1.988-0.966,3.095-0.966
		c1.806,0,3.494,0.886,4.516,2.369C227.823,233.47,227.194,236.884,224.71,238.595z M260.991,229.334
		c-2.678,1.821-5.797,2.785-9.02,2.785c-5.334,0-10.307-2.629-13.302-7.031c-2.414-3.549-3.302-7.825-2.5-12.041
		c0.802-4.216,3.198-7.867,6.746-10.28l96.869-65.905c2.678-1.822,5.797-2.785,9.019-2.785c5.334,0,10.307,2.629,13.303,7.033
		c4.983,7.325,3.078,17.338-4.247,22.321L260.991,229.334z M384.21,455.495c0,13.195-10.736,23.93-23.932,23.93
		c-13.196,0-23.932-10.734-23.932-23.93l-0.002-162.518c0-13.196,10.737-23.932,23.934-23.932c13.196,0,23.932,10.735,23.932,23.932
		V455.495z M360.278,260.545c-17.884,0-32.434,14.549-32.434,32.432v6.409c-5.094-6.439-8.124-14.342-8.53-22.699l-3.617-74.292
		l46.942-31.937c11.2-7.618,14.113-22.93,6.494-34.13c-4.58-6.732-12.18-10.752-20.331-10.752c-4.935,0-9.707,1.473-13.8,4.258
		l-21.738,14.79c1.702-19.479,17.601-35.25,37.666-36.227c21.889-1.069,40.579,15.882,41.644,37.779l6.164,126.646
		c0.401,8.243-1.742,16.252-6.028,23.064v-2.91C392.71,275.094,378.161,260.545,360.278,260.545z"/>
	<path d="M353.801,329.184c-2.347,0-4.25,1.902-4.25,4.25v59.997c0,2.348,1.903,4.25,4.25,4.25s4.25-1.902,4.25-4.25v-59.997
		C358.051,331.086,356.148,329.184,353.801,329.184z"/>
	<path d="M228.632,269.583l-34.646,7.698l-46.729-20.443c-0.868-0.38-1.837-0.458-2.753-0.225l-51,13
		c-1.942,0.495-3.274,2.279-3.197,4.282l8,207.5c0.088,2.281,1.963,4.086,4.247,4.086h97c2.112,0,3.904-1.552,4.206-3.642l30-207.5
		c0.2-1.383-0.292-2.774-1.316-3.725C231.419,269.665,229.992,269.278,228.632,269.583z M195.874,476.982H173.47v-61.583
		c0-2.348-1.903-4.25-4.25-4.25s-4.25,1.902-4.25,4.25v61.583h-32.166v-76.25c0-2.348-1.903-4.25-4.25-4.25
		c-2.347,0-4.25,1.902-4.25,4.25v76.25h-17.661l-7.71-199.98l46.255-11.79l46.662,20.414c0.826,0.361,1.747,0.452,2.626,0.255
		l9.918-2.204l-4.722,37.188c-0.295,2.328,1.353,4.456,3.681,4.751c0.182,0.023,0.362,0.034,0.541,0.034
		c2.108,0,3.938-1.567,4.211-3.715l5.107-40.217l11.256-2.501L195.874,476.982z"/>
	<path d="M144.882,231.738c0.83,0.83,1.917,1.245,3.005,1.245c1.088,0,2.175-0.415,3.005-1.245c1.66-1.659,1.66-4.351,0-6.01
		l-11.333-11.333c-1.66-1.66-4.351-1.66-6.011,0c-1.66,1.659-1.66,4.351,0,6.01L144.882,231.738z"/>
	<path d="M98.555,217.649c1.087,0,2.175-0.415,3.005-1.245c1.66-1.659,1.66-4.351,0-6.01l-13.667-13.667
		c-1.66-1.66-4.351-1.661-6.011,0c-1.66,1.659-1.66,4.351,0,6.01l13.666,13.667C96.379,217.234,97.467,217.649,98.555,217.649z"/>
	<path d="M149.038,197.786c0.822,1.211,2.159,1.863,3.521,1.863c0.821,0,1.652-0.237,2.383-0.733
		c1.942-1.318,2.448-3.961,1.13-5.903l-12.667-18.666c-1.318-1.942-3.961-2.449-5.903-1.13c-1.942,1.318-2.448,3.961-1.13,5.903
		L149.038,197.786z"/>
	<path d="M159.531,127.507c0.785,1.373,2.218,2.143,3.694,2.143c0.715,0,1.44-0.181,2.105-0.561
		c2.038-1.165,2.746-3.762,1.581-5.799l-2.667-4.666c-1.164-2.037-3.761-2.745-5.799-1.582c-2.038,1.165-2.746,3.762-1.581,5.799
		L159.531,127.507z"/>
	<path d="M111.562,152.895c0.794,1.342,2.21,2.089,3.663,2.089c0.735,0,1.479-0.191,2.158-0.592
		c2.021-1.194,2.691-3.801,1.497-5.821l-8.666-14.667c-1.194-2.021-3.8-2.689-5.821-1.497c-2.021,1.194-2.691,3.801-1.497,5.821
		L111.562,152.895z"/>
	<path d="M204.555,124.983c2.347,0,4.25-1.902,4.25-4.25v-10.667c0-2.348-1.903-4.25-4.25-4.25s-4.25,1.902-4.25,4.25v10.667
		C200.305,123.081,202.208,124.983,204.555,124.983z"/>
</g>
<g>
</g>
<g>
</g>
<g>
</g>
<g>
</g>
<g>
</g>
<g>
</g>
<g>
</g>
<g>
</g>
<g>
</g>
<g>
</g>
<g>
</g>
<g>
</g>
<g>
</g>
<g>
</g>
<g>
</g>
</svg>
