<?xml version="1.0" encoding="utf-8"?>
<!-- Generator: Adobe Illustrator 22.0.1, SVG Export Plug-In . SVG Version: 6.00 Build 0)  -->
<svg version="1.1" id="Capa_1" xmlns="http://www.w3.org/2000/svg" xmlns:xlink="http://www.w3.org/1999/xlink" x="0px" y="0px"
	 viewBox="0 0 512 512" style="enable-background:new 0 0 512 512;" xml:space="preserve">
<style type="text/css">
	.st0{fill:#424242;}
	.st1{fill:#EF999A;}
	.st2{fill:#E6E1D7;}
	.st3{opacity:0.1;enable-background:new    ;}
	.st4{fill:#212121;}
	.st5{fill:#D98B8C;}
	.st6{fill:#FFCC80;}
	.st7{fill:#FFFFFF;}
</style>
<path class="st0" d="M214.3,88c-27.4-28.9-61.2-22.2-86.1-16.5c-24.9,5.7,31,82.2,80.3,52.7l14.4-6.1L214.3,88z"/>
<path class="st1" d="M213.3,102.4c-11.8-10.3-25.2-14.8-41.7-14.1c-3.9,0.2-7.9,0.6-11.9,1.3c-4.5,0.7-6.3,6.2-3.1,9.4
	c1.8,1.9,3.8,3.8,6,5.7c11.9,10.2,25.1,15.8,36.3,15.3h0c6-0.3,11.5-2.2,16.8-5.9l1.1-0.8L213.3,102.4z"/>
<path class="st0" d="M419.8,88c27.4-28.9,61.2-22.2,86.1-16.5c24.9,5.7-31,82.2-80.3,52.7l-14.4-6.1L419.8,88z"/>
<path class="st1" d="M420.9,102.4c11.8-10.3,25.2-14.8,41.7-14.1c3.9,0.2,7.9,0.6,11.9,1.3c4.5,0.7,6.3,6.2,3.1,9.4
	c-1.8,1.9-3.8,3.8-6,5.7c-11.9,10.2-25.1,15.8-36.3,15.3h0c-6-0.3-11.5-2.2-16.8-5.9l-1.1-0.8L420.9,102.4z"/>
<path class="st2" d="M407.6,246.7C407.5,246.7,407.5,246.7,407.6,246.7L407.6,246.7L383.7,43.5c-16.6-10-38.5-15.9-66.7-15.9
	c-27.8,0-49.4,5.7-65.9,15.4l-0.8,0.5l0.6,0.7l-24.5,202.5h0v0c0.6,7,1,13.5,1.5,19.7h178.1c0,0,0,0,0,0l0-0.2
	C406.5,260.1,407,253.6,407.6,246.7C407.6,246.7,407.6,246.7,407.6,246.7z"/>
<path class="st3" d="M222.9,118.1L214.3,88c-6.3-6.6-12.8-11.3-19.6-14.7c-3.6,8.4-6.4,17.4-8.3,27c-1.9,9.7-2.9,20-2.9,30.6
	c8.2,0.2,16.7-1.8,24.9-6.7L222.9,118.1z"/>
<path class="st0" d="M215.5,186c6.8,23,9.5,43.1,11,60.7c20-36.7,54.5-38.5,57.3-76.3c3.7-49.5-42.1-52.7-22.4-114l-11.1-13
	C204.1,71.4,199.4,131.7,215.5,186z"/>
<path class="st4" d="M243.6,150.4c-3.1-0.3-6,0.3-8.6,1.5c-1.5,0.8-2.6,2.2-2.8,3.9l0,0c-0.9,9.2,5.5,17.3,14.4,18.2
	c3.1,0.3,6-0.3,8.6-1.5c1.5-0.8,2.6-2.2,2.8-3.9l0,0C259,159.5,252.5,151.3,243.6,150.4z"/>
<path class="st5" d="M382.4,329.4c4.4,30-9.4,43.3-65.4,43.3h0c-55.9,0-69.7-13.3-65.4-43.3H382.4z"/>
<path class="st1" d="M382.4,329.4c19.7-14.3,21.7-34.7,23.7-63c-22.9-11.4-54.3-18.4-89-18.4c-34.7,0-66.2,7-89,18.4
	c2,28.3,4,48.7,23.7,63c26.6,15,65.4,14.3,65.4,14.3S355.8,344.5,382.4,329.4z"/>
<ellipse transform="matrix(0.9616 -0.2746 0.2746 0.9616 -69.4214 86.0326)" class="st4" cx="272.6" cy="291" rx="15" ry="22"/>
<path class="st3" d="M447.7,100.4c-1.9-9.6-4.7-18.6-8.3-27c-6.7,3.3-13.3,8.1-19.6,14.7l-8.6,30.1l14.4,6.1
	c8.3,4.9,16.7,6.9,24.9,6.7C450.5,120.4,449.6,110.1,447.7,100.4z"/>
<path class="st0" d="M418.6,186c-6.8,23-9.5,43.1-11,60.7c-20-36.7-54.5-38.5-57.3-76.3c-3.7-49.5,42.1-52.7,22.4-114l11.1-13
	C430,71.4,434.7,131.7,418.6,186z"/>
<g>
	<path class="st4" d="M390.5,150.4c3.1-0.3,6,0.3,8.6,1.5c1.5,0.8,2.6,2.2,2.8,3.9l0,0c0.9,9.2-5.5,17.3-14.4,18.2
		c-3.1,0.3-6-0.3-8.6-1.5c-1.5-0.8-2.6-2.2-2.8-3.9l0,0C375.1,159.5,381.6,151.3,390.5,150.4z"/>
	<ellipse transform="matrix(0.2746 -0.9616 0.9616 0.2746 -17.5463 558.6635)" class="st4" cx="361.5" cy="291" rx="22" ry="15"/>
</g>
<path class="st6" d="M277.5,59.6c-3.1,11.4-16.9,16.1-26.4,9.1c-10.2-7.5-12.7-22.8-12.1-34.7c0.4-7.2,4.1-23.9,14.5-20.8
	c13,3.9,13.4,25.1,21,34.4C278,51.9,278.5,56,277.5,59.6z"/>
<path class="st3" d="M258.9,53.1c-10.2-7.5-12.7-22.8-12.1-34.7c0.1-1.3,0.2-2.8,0.5-4.5c-5.8,3.4-8.1,14.6-8.4,20.2
	c-0.7,11.8,1.9,27.1,12.1,34.7c9.5,7,23.3,2.2,26.4-9.1c0.5-1.8,0.6-3.7,0.2-5.7C272.1,57.2,264.7,57.3,258.9,53.1z"/>
<path class="st6" d="M356.6,59.6c3.1,11.4,16.9,16.1,26.4,9.1c10.2-7.5,12.7-22.8,12.1-34.7c-0.4-7.2-4.1-23.9-14.5-20.8
	c-13,3.9-13.4,25.1-21,34.4C356.1,51.9,355.7,56,356.6,59.6z"/>
<path class="st3" d="M375.2,53.1c10.2-7.5,12.7-22.8,12.1-34.7c-0.1-1.3-0.2-2.8-0.5-4.5c5.8,3.4,8.1,14.6,8.4,20.2
	c0.7,11.8-1.9,27.1-12.1,34.7c-9.5,7-23.3,2.2-26.4-9.1c-0.5-1.8-0.6-3.7-0.2-5.7C362,57.2,369.4,57.3,375.2,53.1z"/>
<g>
	<path class="st7" d="M128.5,483.4c-58.4,0-106-31.2-106-69.6s47.5-69.6,106-69.6c20.3,0,40.1,3.8,57.1,11c0.9,0.4,2,0.6,3.1,0.6
		c5.4,0,14.2-4.4,28.1-11.7c6.4-3.3,14.5-7.6,19.6-9.5c-2.2,4.1-6.1,10.1-9,14.5c-10.4,15.9-14.4,22.5-10.1,26.8
		c11.2,11.3,17.2,24.4,17.2,37.9C234.4,452.2,186.9,483.4,128.5,483.4z"/>
	<path d="M224.6,345.1c-0.4,0.5-0.7,1.1-1,1.5c-10.7,16.3-16.6,25.3-9.6,32.5c10.4,10.5,15.9,22.5,15.9,34.7
		c0,16.7-10.1,32.7-28.4,44.9c-19.4,13-45.4,20.2-73.1,20.2c-27.7,0-53.7-7.2-73.1-20.2C37.1,446.5,27,430.5,27,413.8
		s10.1-32.7,28.4-44.9c19.4-13,45.4-20.2,73.1-20.2c19.7,0,38.9,3.7,55.4,10.7c1.5,0.6,3.1,0.9,4.9,0.9c6.5,0,15.7-4.6,30.2-12.2
		C220.5,347.2,222.5,346.2,224.6,345.1 M240.4,329c-9.1,0-42.4,22.3-51.7,22.3c-0.5,0-1-0.1-1.3-0.2c-17-7.2-37.2-11.4-58.9-11.4
		c-61,0-110.5,33.2-110.5,74.1s49.5,74.1,110.5,74.1s110.5-33.2,110.5-74.1c0-15.2-6.8-29.3-18.5-41.1c-3.9-3.9,26.5-39.9,21.6-43.3
		C241.6,329.2,241.1,329,240.4,329L240.4,329z"/>
</g>
</svg>
