<svg id="Fill_Outline" height="512" viewBox="0 0 64 64" width="512" xmlns="http://www.w3.org/2000/svg" data-name="Fill Outline"><g id="Stroke_copy" data-name="Stroke copy"><path d="m40.62 20.96h13v33h-13z" fill="#f9e109" transform="matrix(.866 -.5 .5 .866 -12.42 28.58)"/><path d="m44.24 38.74-8.08-14-2.92 1.68 16.5 28.58 11.26-6.5-2.14-3.71a13 13 0 0 1 -14.62-6.05z" fill="#fcbc04"/><ellipse cx="52.17" cy="43.21" fill="#e59730" rx="2" ry="4" transform="matrix(.866 -.5 .5 .866 -14.61 31.87)"/><path d="m29.57 43.97 4.77-3.71 1.95-6.54 4.77-3.71 1.95-6.54 4.77-3.71 2.65-5.84 3.36-3.71-7.07-7.07-33.24 33.23 14.15 14.15z" fill="#57b7eb"/><path d="m24.09 47a10.54 10.54 0 0 0 -1.59-12.9l-3.36-3.36-15.55 15.53a2 2 0 0 0 0 2.83l11.31 11.31a2 2 0 0 0 2.83 0l9.9-9.9zm-7.78 7.78-7.07-7.09 4.25-4.25 7.07 7.07z" fill="#c4f236"/><path d="m29.57 43.97 4.77-3.71 1.95-6.54 4.77-3.71 1.95-6.54 4.77-3.71 2.65-5.84 3.36-3.71-2.12-2.12-3.36 3.71-2.65 5.83-4.77 3.72-1.95 6.54-4.77 3.71-1.95 6.54-4.77 3.71-1.94 6.54 2.12 2.13z" fill="#aae1f9"/><path d="m25.51 48.39-2.13 2.12a9.91 9.91 0 0 1 -5.64 2.82l-1.43 1.43-1.42-1.43a10 10 0 0 1 -5.65-2.82l-4.95-4.95-.7.71a2 2 0 0 0 0 2.83l11.31 11.31a2 2 0 0 0 2.83 0l9.9-9.9z" fill="#a1d51c"/></g><g id="Outline_copy" fill="#39519d" data-name="Outline copy"><path d="m12.78 42.6-4.24 4.24a1 1 0 0 0 0 1.41l7.07 7.08a1 1 0 0 0 1.41 0l4.24-4.25a1 1 0 0 0 0-1.41l-7.07-7.07a1 1 0 0 0 -1.41 0zm3.53 10.6-5.65-5.65 2.83-2.83 5.65 5.66z"/><circle cx="19.14" cy="36.23" r="1"/><circle cx="21.56" cy="38.65" r="1"/><path d="m42 30.16 1.85-6.24 4.52-3.51a1 1 0 0 0 .3-.38l2.59-5.69 3.25-3.6a1 1 0 0 0 0-1.38l-7.08-7.07a1 1 0 0 0 -1.42 0l-27.57 27.58-5.66 5.66a1 1 0 0 0 1.41 1.41l5-4.95 2.66 2.66a9.54 9.54 0 0 1 1.43 11.68 1 1 0 0 0 .15 1.22l2.83 2.83-9.26 9.19a1 1 0 0 1 -1.41 0l-11.3-11.32a1 1 0 0 1 0-1.41l7.07-7.07a1 1 0 0 0 0-1.41 1 1 0 0 0 -1.41 0l-7.07 7.07a3 3 0 0 0 0 4.24l11.31 11.33a3 3 0 0 0 4.25 0l9.89-9.9a1 1 0 0 0 .3-.7 1 1 0 0 0 -.3-.71l-3-3a11.54 11.54 0 0 0 -2.12-13.44l-2.65-2.65 26.16-26.19 5.69 5.7-2.72 3a1.06 1.06 0 0 0 -.17.26l-2.52 5.63-4.58 3.56a1 1 0 0 0 -.34.5l-1.88 6.22-4.53 3.51a1 1 0 0 0 -.34.51l-1.85 6.23-4.48 3.52a1 1 0 0 0 -.18 1.4 1 1 0 0 0 .79.39 1 1 0 0 0 .62-.21l4.77-3.72a1 1 0 0 0 .34-.5l1.86-6.24 4.52-3.51a1.07 1.07 0 0 0 .28-.5z"/><path d="m48.17 37.28a1 1 0 0 0 .5-.14 1 1 0 0 0 .33-1.36l-2-3.47a1 1 0 0 0 -1.74 1l2 3.47a1 1 0 0 0 .91.5z"/><path d="m61.87 48-13.59-23.53a1 1 0 1 0 -1.73 1l13.08 22.66-2.63 1.5-1.67-2.89c.7-1.51-.12-4.21-.6-5-.58-1-3.31-3.87-5.1-2.83s-.68 4.82-.1 5.83c.48.82 2.39 2.87 4.06 3l1.67 2.9-1.73 1-1.46-2.64a1 1 0 1 0 -1.73 1l1.5 2.59-1.73 1-9.83-17a1 1 0 0 0 -1.37-.37 1 1 0 0 0 -.36 1.37l10.33 17.91a1 1 0 0 0 .86.5 1 1 0 0 0 .5-.13l3.46-2 3.46-2 4.33-2.5a1 1 0 0 0 .47-.61 1.05 1.05 0 0 0 -.09-.76zm-10.57-4.29a6.28 6.28 0 0 1 -.59-3 6.24 6.24 0 0 1 2.33 2 6.22 6.22 0 0 1 .59 3 6.3 6.3 0 0 1 -2.33-2z"/><path d="m41.75 33.15a1 1 0 0 0 -.37 1.37l4 6.86a1 1 0 0 0 .87.5 1 1 0 0 0 .5-.14 1 1 0 0 0 .36-1.36l-4-6.86a1 1 0 0 0 -1.36-.37z"/></g></svg>